<svg xmlns="http://www.w3.org/2000/svg">

    <symbol id="logo-skilldrones" viewBox="0 0 443 180" fill="none" xmlns="http://www.w3.org/2000/svg">
        <path d="M87.9266 8.43853H80.8637C80.3242 8.43853 79.8824 8.8605 79.8671 9.39984C79.7854 12.2907 79.5774 20.906 79.8959 24.1683C80.2498 27.7933 81.1175 29.6371 83.6855 31.938C84.0841 32.2951 84.6952 32.2519 85.0556 31.8562L86.7022 30.0479C86.9406 29.7861 87.2997 29.6699 87.6463 29.7424L124.421 37.4347C124.885 37.5316 125.217 37.9402 125.217 38.4135V40.1197V40.4654C125.217 41.0177 124.769 41.4654 124.217 41.4654H117.855C117.303 41.4654 116.855 41.9131 116.855 42.4654V46.7167C116.855 47.0993 116.642 47.4464 116.303 47.6237C113.675 48.997 102.369 55.2935 97.6548 64.2566C95.4366 68.4744 94.9391 75.7146 94.8296 78.3616C94.8066 78.9175 95.2536 79.3684 95.81 79.3684H97.8573C98.3198 79.3684 98.7221 79.0537 98.8406 78.6067C99.374 76.5947 100.956 71.0977 103.006 68.2445C109.073 59.803 112.629 56.3555 125.217 55.0216C129.503 54.5674 131.969 54.5557 136.254 55.0216C148.66 56.3706 150.603 59.6184 157.963 68.2445C160.255 70.9313 161.913 76.5604 162.461 78.6053C162.581 79.0523 162.984 79.3684 163.447 79.3684H165.13C165.698 79.3684 166.149 78.9012 166.111 78.3351C165.932 75.6742 165.27 68.4993 163.147 64.2566C158.594 55.1582 148.004 48.9952 145.492 47.6289C145.16 47.4484 144.95 47.1039 144.95 46.7262V42.4654C144.95 41.9131 144.503 41.4654 143.95 41.4654L137.254 41.4654C136.702 41.4654 136.254 41.0177 136.254 40.4654V40.1197V38.4121C136.254 37.9394 136.585 37.5312 137.048 37.4336L173.618 29.7164C173.893 29.6584 174.179 29.7186 174.407 29.8822L177.502 32.1014C177.541 32.1298 177.578 32.1663 177.624 32.1819C178.36 32.4302 181.811 28.2936 181.909 24.1683C182.04 18.6721 181.961 11.9037 181.925 9.41545C181.917 8.87041 181.473 8.43853 180.927 8.43853H173.711C173.159 8.43853 172.711 8.88625 172.711 9.43853V16.038C172.711 16.5903 172.264 17.038 171.711 17.038L139.04 17.038C138.509 17.038 138.069 16.6247 138.013 16.0967C137.866 14.7191 137.486 12.1635 136.589 10.7415C134.992 8.20967 133.141 7.4158 130.568 7.38327C127.936 7.34998 126.053 8.18946 124.38 10.7415C123.447 12.1665 122.995 14.7531 122.812 16.1257C122.743 16.641 122.308 17.038 121.788 17.038H89.9266C89.3743 17.038 88.9266 16.5903 88.9266 16.038V9.43853C88.9266 8.88625 88.4789 8.43853 87.9266 8.43853Z" fill="#0078D2"/>
        <path d="M164.831 2.14062C165.73 2.06503 166.635 2.15249 167.511 2.40137L172.909 3.93457V4.34668L167.804 5.74609C166.762 6.03162 165.681 6.08905 164.621 5.91699L151.67 3.45703L164.831 2.14062ZM187.222 2.40137C188.098 2.15239 189.004 2.0648 189.904 2.14062L203.061 3.45703L190.112 5.91699C189.052 6.08895 187.971 6.03152 186.929 5.74609L181.621 4.29102V3.99219L187.222 2.40137ZM176.349 1L178.18 1C178.659 1.00007 179.214 1.4624 179.214 2.25V5.97559H175.315V2.25C175.315 1.46246 175.871 1.00014 176.349 1Z" fill="#0078D2" stroke="#0071B3" stroke-width="2"/>
        <path d="M72.1719 2.14062C73.0711 2.06503 73.9767 2.15249 74.8525 2.40137L80.25 3.93457V4.34668L75.1455 5.74609C74.1034 6.03162 73.0224 6.08905 71.9619 5.91699L59.0117 3.45703L72.1719 2.14062ZM94.5635 2.40137C95.4398 2.15239 96.3455 2.0648 97.2451 2.14062L110.402 3.45703L97.4531 5.91699C96.3928 6.08895 95.3124 6.03152 94.2705 5.74609L88.9619 4.29102V3.99219L94.5635 2.40137ZM83.6904 1L85.5215 1C86.0001 1.00007 86.5556 1.4624 86.5557 2.25V5.97559H82.6562V2.25C82.6563 1.46246 83.2119 1.00014 83.6904 1Z" fill="#0078D2" stroke="#0071B3" stroke-width="2"/>
        <path d="M194.409 157.397H176.188V98.352H195.216C200.944 98.352 205.845 99.5341 209.92 101.898C213.994 104.243 217.118 107.616 219.29 112.018C221.462 116.4 222.548 121.647 222.548 127.759C222.548 133.91 221.452 139.205 219.261 143.645C217.07 148.066 213.879 151.468 209.689 153.851C205.499 156.215 200.405 157.397 194.409 157.397ZM183.338 151.055H193.947C198.829 151.055 202.875 150.113 206.085 148.229C209.295 146.346 211.688 143.664 213.264 140.185C214.84 136.707 215.628 132.565 215.628 127.759C215.628 122.993 214.85 118.889 213.293 115.449C211.736 111.989 209.41 109.337 206.316 107.491C203.221 105.627 199.368 104.695 194.755 104.695H183.338V151.055ZM233.619 157.397V113.113H240.192V119.802H240.653C241.461 117.611 242.921 115.833 245.036 114.468C247.15 113.104 249.533 112.421 252.186 112.421C252.685 112.421 253.31 112.431 254.06 112.45C254.809 112.469 255.376 112.498 255.761 112.537V119.456C255.53 119.398 255.001 119.312 254.175 119.197C253.368 119.062 252.512 118.995 251.609 118.995C249.456 118.995 247.534 119.447 245.843 120.35C244.171 121.234 242.844 122.464 241.864 124.04C240.903 125.597 240.423 127.375 240.423 129.374V157.397H233.619ZM280.469 158.32C276.471 158.32 272.963 157.369 269.945 155.466C266.947 153.563 264.602 150.901 262.911 147.48C261.238 144.058 260.402 140.061 260.402 135.486C260.402 130.873 261.238 126.846 262.911 123.406C264.602 119.965 266.947 117.294 269.945 115.391C272.963 113.488 276.471 112.537 280.469 112.537C284.466 112.537 287.965 113.488 290.963 115.391C293.981 117.294 296.326 119.965 297.998 123.406C299.689 126.846 300.535 130.873 300.535 135.486C300.535 140.061 299.689 144.058 297.998 147.48C296.326 150.901 293.981 153.563 290.963 155.466C287.965 157.369 284.466 158.32 280.469 158.32ZM280.469 152.208C283.505 152.208 286.004 151.429 287.965 149.873C289.925 148.316 291.376 146.269 292.318 143.732C293.26 141.195 293.731 138.446 293.731 135.486C293.731 132.526 293.26 129.768 292.318 127.212C291.376 124.655 289.925 122.589 287.965 121.013C286.004 119.437 283.505 118.649 280.469 118.649C277.432 118.649 274.933 119.437 272.973 121.013C271.012 122.589 269.561 124.655 268.619 127.212C267.677 129.768 267.206 132.526 267.206 135.486C267.206 138.446 267.677 141.195 268.619 143.732C269.561 146.269 271.012 148.316 272.973 149.873C274.933 151.429 277.432 152.208 280.469 152.208ZM317.725 130.758V157.397H310.921V113.113H317.495V120.033H318.071C319.109 117.784 320.685 115.977 322.799 114.613C324.914 113.229 327.643 112.537 330.987 112.537C333.986 112.537 336.609 113.152 338.858 114.382C341.107 115.593 342.856 117.438 344.105 119.917C345.355 122.378 345.979 125.491 345.979 129.259V157.397H339.175V129.72C339.175 126.241 338.272 123.531 336.465 121.59C334.658 119.629 332.179 118.649 329.027 118.649C326.855 118.649 324.914 119.12 323.203 120.062C321.512 121.003 320.176 122.378 319.196 124.184C318.215 125.991 317.725 128.182 317.725 130.758ZM376.98 158.32C372.713 158.32 369.032 157.378 365.937 155.495C362.862 153.592 360.488 150.939 358.816 147.537C357.163 144.116 356.337 140.137 356.337 135.601C356.337 131.065 357.163 127.067 358.816 123.608C360.488 120.129 362.814 117.419 365.793 115.477C368.792 113.517 372.29 112.537 376.288 112.537C378.594 112.537 380.872 112.921 383.121 113.69C385.369 114.459 387.416 115.708 389.262 117.438C391.107 119.149 392.577 121.417 393.673 124.242C394.768 127.067 395.316 130.546 395.316 134.679V137.562H361.18V131.68H388.397C388.397 129.182 387.897 126.952 386.897 124.992C385.917 123.031 384.514 121.484 382.688 120.35C380.881 119.216 378.748 118.649 376.288 118.649C373.578 118.649 371.233 119.322 369.253 120.667C367.293 121.993 365.784 123.723 364.727 125.857C363.669 127.99 363.141 130.277 363.141 132.718V136.639C363.141 139.984 363.717 142.819 364.871 145.144C366.043 147.451 367.667 149.21 369.743 150.42C371.819 151.612 374.231 152.208 376.98 152.208C378.767 152.208 380.382 151.958 381.823 151.458C383.284 150.939 384.543 150.171 385.6 149.152C386.657 148.114 387.474 146.826 388.051 145.289L394.624 147.134C393.932 149.363 392.769 151.324 391.136 153.015C389.502 154.687 387.484 155.994 385.081 156.936C382.679 157.859 379.978 158.32 376.98 158.32ZM437.034 123.031L430.922 124.761C430.538 123.742 429.971 122.752 429.221 121.791C428.491 120.811 427.491 120.004 426.223 119.37C424.954 118.735 423.33 118.418 421.35 118.418C418.64 118.418 416.382 119.043 414.575 120.292C412.787 121.522 411.894 123.089 411.894 124.992C411.894 126.683 412.509 128.019 413.739 128.999C414.969 129.979 416.891 130.796 419.505 131.45L426.078 133.064C430.038 134.025 432.988 135.496 434.93 137.475C436.871 139.436 437.841 141.963 437.841 145.058C437.841 147.595 437.111 149.863 435.65 151.862C434.209 153.861 432.191 155.437 429.596 156.59C427.001 157.743 423.983 158.32 420.543 158.32C416.026 158.32 412.288 157.34 409.328 155.379C406.368 153.419 404.494 150.555 403.706 146.788L410.164 145.173C410.779 147.557 411.942 149.344 413.652 150.536C415.382 151.727 417.641 152.323 420.428 152.323C423.599 152.323 426.117 151.651 427.981 150.305C429.865 148.94 430.807 147.307 430.807 145.404C430.807 143.866 430.269 142.578 429.192 141.541C428.116 140.483 426.463 139.695 424.233 139.176L416.853 137.447C412.797 136.486 409.818 134.996 407.915 132.978C406.031 130.94 405.09 128.394 405.09 125.338C405.09 122.839 405.791 120.629 407.194 118.707C408.617 116.784 410.548 115.276 412.989 114.18C415.45 113.085 418.237 112.537 421.35 112.537C425.733 112.537 429.173 113.498 431.672 115.42C434.19 117.342 435.977 119.879 437.034 123.031Z" fill="#0078D2"/>
        <path d="M46.4741 108.532C45.4535 105.773 43.5583 103.896 40.7884 102.903C38.0184 101.91 34.8957 101.831 31.4201 102.669C28.8788 103.281 26.7542 104.228 25.0463 105.509C23.3571 106.786 22.1532 108.272 21.4347 109.967C20.7349 111.658 20.6056 113.419 21.0467 115.251C21.4159 116.783 22.0976 118.012 23.0919 118.939C24.1004 119.843 25.2718 120.52 26.6058 120.969C27.9354 121.4 29.2918 121.696 30.675 121.857C32.0537 122 33.3093 122.083 34.4419 122.107L40.6501 122.272C42.2395 122.304 44.0331 122.445 46.0309 122.695C48.0473 122.941 50.0405 123.459 52.0103 124.25C53.9943 125.018 55.7604 126.194 57.3085 127.778C58.8566 129.362 59.9548 131.5 60.603 134.191C61.3503 137.293 61.2126 140.291 60.1901 143.187C59.1864 146.078 57.3113 148.635 54.5651 150.859C51.8375 153.078 48.2688 154.718 43.8589 155.781C39.748 156.771 36.0285 156.965 32.7004 156.363C29.3911 155.757 26.591 154.474 24.3002 152.515C22.0281 150.551 20.4018 148.027 19.4213 144.942L26.5967 143.213C27.3058 145.336 28.4667 146.954 30.0794 148.068C31.7064 149.159 33.5841 149.814 35.7127 150.032C37.8555 150.228 40.0667 150.051 42.3464 149.502C44.9998 148.863 47.2787 147.859 49.1832 146.491C51.0831 145.104 52.4629 143.487 53.3226 141.638C54.1777 139.772 54.3532 137.792 53.8491 135.699C53.3899 133.793 52.4837 132.371 51.1305 131.431C49.7773 130.492 48.1418 129.858 46.224 129.529C44.3061 129.2 42.2706 128.999 40.1175 128.924L32.568 128.608C27.7728 128.399 23.7791 127.413 20.5869 125.652C17.3946 123.89 15.3326 121.075 14.4008 117.207C13.6266 113.993 13.8202 110.981 14.9819 108.171C16.1576 105.337 18.0619 102.901 20.6947 100.863C23.3417 98.8023 26.4964 97.3306 30.1588 96.4483C33.8587 95.557 37.3072 95.4281 40.5044 96.0616C43.6972 96.6764 46.409 97.9211 48.6399 99.7956C50.8895 101.666 52.4099 104.038 53.2011 106.911L46.4741 108.532ZM77.2742 130.056L75.1905 121.899L76.5359 121.574L90.7528 97.8652L98.9373 95.8935L83.7572 121.021L83.1966 121.156L77.2742 130.056ZM74.8891 147.238L61.0606 89.8344L67.6755 88.2409L81.5039 145.644L74.8891 147.238ZM102.245 140.648L80.2963 123.397L83.8978 117.666L110.654 138.622L102.245 140.648ZM117.822 136.895L107.451 93.8426L114.066 92.249L124.437 135.302L117.822 136.895ZM109.086 85.8569C107.797 86.1675 106.579 85.9962 105.433 85.343C104.306 84.6854 103.594 83.7399 103.297 82.5066C103 81.2734 103.203 80.1073 103.907 79.0085C104.63 77.9052 105.636 77.1982 106.925 76.8876C108.215 76.577 109.423 76.7506 110.55 77.4082C111.696 78.0614 112.417 79.0046 112.715 80.2379C113.012 81.4712 112.799 82.6395 112.076 83.7428C111.372 84.8416 110.375 85.5463 109.086 85.8569ZM129.339 73.3861L143.168 130.789L136.553 132.383L122.724 74.9796L129.339 73.3861ZM148.07 68.8739L161.898 126.277L155.283 127.871L141.455 70.4674L148.07 68.8739Z" fill="#56B9F2"/>
    </symbol>

    <symbol id="logo-skilldrones-secondary" viewBox="0 0 520 520" fill="none" xmlns="http://www.w3.org/2000/svg">
        <mask id="path-1-inside-1_671_6609" fill="white">
        <path fill-rule="evenodd" clip-rule="evenodd" d="M260 520C403.594 520 520 403.594 520 260L498 271H493.5L479.5 242.5L469 233.5L453 223L443 221.5L432 213L424.5 209L434 225.5L447 227.5L450 233.5L457 242.5L421 267.5H410.5L406.5 263L405 253L367.5 198H374.5V178.5L361 184L345.5 165.5V158L352.5 154.5L363 150.5H389L390.5 145.5L380.5 138L373 136.5L378 131L369 127.5L347.5 141V152L338 158H323L325.5 165.5L318 160L312.5 145.5L287.5 131V138L308 158H294.5V150.5L283.5 147L284.5 144L275.5 138L264 141L247.5 148L235 165.5L226 170.5L204 167L206 141L227.5 135.5L238 126.5L230.5 118L238 112.5L252.5 106L267 95.5L279 89L294.5 101H300L308 95.5L310.5 85.5L305 75L294.5 90.5L280.5 85.5L279 77H264V68L275.5 59L287.5 55.5L305 46.5H341.5L363 52.5L364.5 57.5L369 64.5H378L384.5 62L406.5 45.1727C364.783 16.6691 314.338 0 260 0C225.899 0 193.332 6.56497 163.492 18.5L175 43L171.5 49L164 52.5L142 75L129 90.5L116 96.5L101 93.5L77.3117 75C66.7096 85.4704 57.0031 96.8455 48.3174 109L74.5 121.5L71 127.5L77 141L74.5 154.5L50.5 172L58.5 170V172L33.5 215L31 239L27 254L0 260C0 277.632 1.75504 294.853 5.09996 311.5H33L66 331.5L77 346.5L84 363L96 368L106 371L121 379.5L123 389L113 413.5L118.5 427.5L106 437L74.5 442.181C121.675 490.21 187.359 520 260 520ZM199 198L210.5 181L226 178.5L235 174.5L254.5 170.5H267H279L284.5 185.5L287.5 191L294.5 195H312.5L325.5 191L328 195L349 198L367.5 206.5L373.5 216.5L390 253L413 285H430L401 324.5L390 342.5L393 371L367.5 401.5V416.5L354.5 424.5L349 433.5L337 444.5L312.5 448V439.5L294.5 408.5L287.5 398L284.5 384L294.5 368L287.5 354V342.5L276 331.5V318.5L273.5 304H254.5L251 296.5L246.5 299.5L210.5 309.5L199 299.5L173 270.5L166 238.5L173 216.5L186.5 209.5L199 198ZM206 104.5L210 95.5L221.5 98L222 84L227.5 79L242 100L238 106L222.5 109L221 101L211.5 109L206 104.5ZM422 376.5V360L416.5 368L403.5 376.5V385.5L393 403.5L401 411.5L414.5 401.5L418.5 387.5L422 376.5Z"/>
        <path d="M210.5 181L199 198L186.5 209.5L173 216.5L166 238.5L173 270.5L199 299.5L210.5 309.5L246.5 299.5L251 296.5L254.5 304H273.5L276 318.5V331.5L287.5 342.5V354L294.5 368L284.5 384L287.5 398L294.5 408.5L312.5 439.5V448L337 444.5L349 433.5L354.5 424.5L367.5 416.5V401.5L393 371L390 342.5L401 324.5L430 285H413L390 253L373.5 216.5L367.5 206.5L349 198L328 195L325.5 191L312.5 195H294.5L287.5 191L284.5 185.5L279 170.5H267H254.5L235 174.5L226 178.5L210.5 181Z"/>
        <path d="M206 141L204 167L226 170.5L235 165.5L247.5 148L264 141L275.5 138L284.5 144L283.5 147L294.5 150.5V158H308L287.5 138V131L312.5 145.5L318 160L325.5 165.5L323 158H338L347.5 152V141L369 127.5L378 131L373 136.5L380.5 138L390.5 145.5L389 150.5H363L352.5 154.5L345.5 158V165.5L361 184L374.5 178.5V198H367.5L405 253L406.5 263L410.5 267.5H421L457 242.5L450 233.5L447 227.5L434 225.5L424.5 209L432 213L443 221.5L453 223L469 233.5L479.5 242.5L493.5 271H498L520 260C520 170.744 475.024 91.9928 406.5 45.1727L384.5 62L378 64.5H369L364.5 57.5L363 52.5L341.5 46.5H305L287.5 55.5L275.5 59L264 68V77H279L280.5 85.5L294.5 90.5L305 75L310.5 85.5L308 95.5L300 101H294.5L279 89L267 95.5L252.5 106L238 112.5L230.5 118L238 126.5L227.5 135.5L206 141Z"/>
        <path d="M0 260L27 254L31 239L33.5 215L58.5 172V170L50.5 172L74.5 154.5L77 141L71 127.5L74.5 121.5L48.3174 109C17.8989 151.567 0 203.693 0 260Z"/>
        <path d="M101 93.5L116 96.5L129 90.5L142 75L164 52.5L171.5 49L175 43L163.492 18.5C131.022 31.4876 101.781 50.8342 77.3117 75L101 93.5Z"/>
        <path d="M33 311.5H5.09996C15.2156 361.842 39.8717 406.925 74.5 442.181L106 437L118.5 427.5L113 413.5L123 389L121 379.5L106 371L96 368L84 363L77 346.5L66 331.5L33 311.5Z"/>
        <path d="M422 360V376.5L418.5 387.5L414.5 401.5L401 411.5L393 403.5L403.5 385.5V376.5L416.5 368L422 360Z"/>
        <path d="M210 95.5L206 104.5L211.5 109L221 101L222.5 109L238 106L242 100L227.5 79L222 84L221.5 98L210 95.5Z"/>
        </mask>
        <path fill-rule="evenodd" clip-rule="evenodd" d="M260 520C403.594 520 520 403.594 520 260L498 271H493.5L479.5 242.5L469 233.5L453 223L443 221.5L432 213L424.5 209L434 225.5L447 227.5L450 233.5L457 242.5L421 267.5H410.5L406.5 263L405 253L367.5 198H374.5V178.5L361 184L345.5 165.5V158L352.5 154.5L363 150.5H389L390.5 145.5L380.5 138L373 136.5L378 131L369 127.5L347.5 141V152L338 158H323L325.5 165.5L318 160L312.5 145.5L287.5 131V138L308 158H294.5V150.5L283.5 147L284.5 144L275.5 138L264 141L247.5 148L235 165.5L226 170.5L204 167L206 141L227.5 135.5L238 126.5L230.5 118L238 112.5L252.5 106L267 95.5L279 89L294.5 101H300L308 95.5L310.5 85.5L305 75L294.5 90.5L280.5 85.5L279 77H264V68L275.5 59L287.5 55.5L305 46.5H341.5L363 52.5L364.5 57.5L369 64.5H378L384.5 62L406.5 45.1727C364.783 16.6691 314.338 0 260 0C225.899 0 193.332 6.56497 163.492 18.5L175 43L171.5 49L164 52.5L142 75L129 90.5L116 96.5L101 93.5L77.3117 75C66.7096 85.4704 57.0031 96.8455 48.3174 109L74.5 121.5L71 127.5L77 141L74.5 154.5L50.5 172L58.5 170V172L33.5 215L31 239L27 254L0 260C0 277.632 1.75504 294.853 5.09996 311.5H33L66 331.5L77 346.5L84 363L96 368L106 371L121 379.5L123 389L113 413.5L118.5 427.5L106 437L74.5 442.181C121.675 490.21 187.359 520 260 520ZM199 198L210.5 181L226 178.5L235 174.5L254.5 170.5H267H279L284.5 185.5L287.5 191L294.5 195H312.5L325.5 191L328 195L349 198L367.5 206.5L373.5 216.5L390 253L413 285H430L401 324.5L390 342.5L393 371L367.5 401.5V416.5L354.5 424.5L349 433.5L337 444.5L312.5 448V439.5L294.5 408.5L287.5 398L284.5 384L294.5 368L287.5 354V342.5L276 331.5V318.5L273.5 304H254.5L251 296.5L246.5 299.5L210.5 309.5L199 299.5L173 270.5L166 238.5L173 216.5L186.5 209.5L199 198ZM206 104.5L210 95.5L221.5 98L222 84L227.5 79L242 100L238 106L222.5 109L221 101L211.5 109L206 104.5ZM422 376.5V360L416.5 368L403.5 376.5V385.5L393 403.5L401 411.5L414.5 401.5L418.5 387.5L422 376.5Z" fill="white"/>
        <path d="M210.5 181L199 198L186.5 209.5L173 216.5L166 238.5L173 270.5L199 299.5L210.5 309.5L246.5 299.5L251 296.5L254.5 304H273.5L276 318.5V331.5L287.5 342.5V354L294.5 368L284.5 384L287.5 398L294.5 408.5L312.5 439.5V448L337 444.5L349 433.5L354.5 424.5L367.5 416.5V401.5L393 371L390 342.5L401 324.5L430 285H413L390 253L373.5 216.5L367.5 206.5L349 198L328 195L325.5 191L312.5 195H294.5L287.5 191L284.5 185.5L279 170.5H267H254.5L235 174.5L226 178.5L210.5 181Z" fill="#56B9F2" fill-opacity="0.7"/>
        <path d="M206 141L204 167L226 170.5L235 165.5L247.5 148L264 141L275.5 138L284.5 144L283.5 147L294.5 150.5V158H308L287.5 138V131L312.5 145.5L318 160L325.5 165.5L323 158H338L347.5 152V141L369 127.5L378 131L373 136.5L380.5 138L390.5 145.5L389 150.5H363L352.5 154.5L345.5 158V165.5L361 184L374.5 178.5V198H367.5L405 253L406.5 263L410.5 267.5H421L457 242.5L450 233.5L447 227.5L434 225.5L424.5 209L432 213L443 221.5L453 223L469 233.5L479.5 242.5L493.5 271H498L520 260C520 170.744 475.024 91.9928 406.5 45.1727L384.5 62L378 64.5H369L364.5 57.5L363 52.5L341.5 46.5H305L287.5 55.5L275.5 59L264 68V77H279L280.5 85.5L294.5 90.5L305 75L310.5 85.5L308 95.5L300 101H294.5L279 89L267 95.5L252.5 106L238 112.5L230.5 118L238 126.5L227.5 135.5L206 141Z" fill="#56B9F2" fill-opacity="0.7"/>
        <path d="M0 260L27 254L31 239L33.5 215L58.5 172V170L50.5 172L74.5 154.5L77 141L71 127.5L74.5 121.5L48.3174 109C17.8989 151.567 0 203.693 0 260Z" fill="#56B9F2" fill-opacity="0.7"/>
        <path d="M101 93.5L116 96.5L129 90.5L142 75L164 52.5L171.5 49L175 43L163.492 18.5C131.022 31.4876 101.781 50.8342 77.3117 75L101 93.5Z" fill="#56B9F2" fill-opacity="0.7"/>
        <path d="M33 311.5H5.09996C15.2156 361.842 39.8717 406.925 74.5 442.181L106 437L118.5 427.5L113 413.5L123 389L121 379.5L106 371L96 368L84 363L77 346.5L66 331.5L33 311.5Z" fill="#56B9F2" fill-opacity="0.7"/>
        <path d="M422 360V376.5L418.5 387.5L414.5 401.5L401 411.5L393 403.5L403.5 385.5V376.5L416.5 368L422 360Z" fill="#56B9F2" fill-opacity="0.7"/>
        <path d="M210 95.5L206 104.5L211.5 109L221 101L222.5 109L238 106L242 100L227.5 79L222 84L221.5 98L210 95.5Z" fill="#56B9F2" fill-opacity="0.7"/>
        <path d="M210.5 181L210.42 180.506L210.207 180.541L210.086 180.72L210.5 181ZM199 198L199.339 198.368L199.381 198.328L199.414 198.28L199 198ZM186.5 209.5L186.73 209.944L186.789 209.913L186.839 209.868L186.5 209.5ZM173 216.5L172.77 216.056L172.586 216.151L172.524 216.348L173 216.5ZM166 238.5L165.524 238.348L165.483 238.476L165.512 238.607L166 238.5ZM173 270.5L172.512 270.607L172.54 270.736L172.628 270.834L173 270.5ZM199 299.5L198.628 299.834L198.648 299.857L198.672 299.877L199 299.5ZM210.5 309.5L210.172 309.877L210.375 310.054L210.634 309.982L210.5 309.5ZM246.5 299.5L246.634 299.982L246.711 299.96L246.777 299.916L246.5 299.5ZM251 296.5L251.453 296.289L251.207 295.761L250.723 296.084L251 296.5ZM254.5 304L254.047 304.211L254.182 304.5H254.5V304ZM273.5 304L273.993 303.915L273.921 303.5H273.5V304ZM276 318.5H276.5V318.457L276.493 318.415L276 318.5ZM276 331.5H275.5V331.714L275.654 331.861L276 331.5ZM287.5 342.5H288V342.286L287.846 342.139L287.5 342.5ZM287.5 354H287V354.118L287.053 354.224L287.5 354ZM294.5 368L294.924 368.265L295.073 368.027L294.947 367.776L294.5 368ZM284.5 384L284.076 383.735L283.969 383.907L284.011 384.105L284.5 384ZM287.5 398L287.011 398.105L287.031 398.198L287.084 398.277L287.5 398ZM294.5 408.5L294.932 408.249L294.925 408.236L294.916 408.223L294.5 408.5ZM312.5 439.5H313V439.365L312.932 439.249L312.5 439.5ZM312.5 448H312V448.577L312.571 448.495L312.5 448ZM337 444.5L337.071 444.995L337.224 444.973L337.338 444.869L337 444.5ZM349 433.5L349.338 433.869L349.39 433.821L349.427 433.761L349 433.5ZM354.5 424.5L354.238 424.074L354.136 424.137L354.073 424.239L354.5 424.5ZM367.5 416.5L367.762 416.926L368 416.779V416.5H367.5ZM367.5 401.5L367.116 401.179L367 401.319V401.5H367.5ZM393 371L393.384 371.321L393.519 371.158L393.497 370.948L393 371ZM390 342.5L389.573 342.239L389.485 342.384L389.503 342.552L390 342.5ZM401 324.5L400.597 324.204L400.584 324.221L400.573 324.239L401 324.5ZM430 285L430.403 285.296L430.987 284.5H430V285ZM413 285L412.594 285.292L412.744 285.5H413V285ZM390 253L389.544 253.206L389.565 253.251L389.594 253.292L390 253ZM373.5 216.5L373.956 216.294L373.944 216.268L373.929 216.243L373.5 216.5ZM367.5 206.5L367.929 206.243L367.849 206.11L367.709 206.046L367.5 206.5ZM349 198L349.209 197.546L349.143 197.515L349.071 197.505L349 198ZM328 195L327.576 195.265L327.699 195.462L327.929 195.495L328 195ZM325.5 191L325.924 190.735L325.72 190.409L325.353 190.522L325.5 191ZM312.5 195V195.5H312.575L312.647 195.478L312.5 195ZM294.5 195L294.252 195.434L294.367 195.5H294.5V195ZM287.5 191L287.061 191.239L287.129 191.364L287.252 191.434L287.5 191ZM284.5 185.5L284.031 185.672L284.043 185.707L284.061 185.739L284.5 185.5ZM279 170.5L279.469 170.328L279.349 170H279V170.5ZM254.5 170.5V170H254.449L254.4 170.01L254.5 170.5ZM235 174.5L234.9 174.01L234.846 174.021L234.797 174.043L235 174.5ZM226 178.5L226.08 178.994L226.144 178.983L226.203 178.957L226 178.5ZM210 95.5L210.106 95.0114L209.708 94.9249L209.543 95.2969L210 95.5ZM206 104.5L205.543 104.297L205.388 104.645L205.683 104.887L206 104.5ZM211.5 109L211.183 109.387L211.505 109.65L211.822 109.382L211.5 109ZM221 101L221.491 100.908L221.333 100.065L220.678 100.618L221 101ZM222.5 109L222.009 109.092L222.101 109.586L222.595 109.491L222.5 109ZM238 106L238.095 106.491L238.3 106.451L238.416 106.277L238 106ZM242 100L242.416 100.277L242.604 99.9951L242.411 99.7159L242 100ZM227.5 79L227.911 78.7159L227.587 78.2455L227.164 78.63L227.5 79ZM222 84L221.664 83.63L221.508 83.7717L221.5 83.9822L222 84ZM221.5 98L221.394 98.4886L221.978 98.6157L222 98.0178L221.5 98ZM206 141L205.876 140.516L205.529 140.604L205.501 140.962L206 141ZM204 167L203.501 166.962L203.466 167.421L203.921 167.494L204 167ZM226 170.5L225.921 170.994L226.092 171.021L226.243 170.937L226 170.5ZM235 165.5L235.243 165.937L235.341 165.882L235.407 165.791L235 165.5ZM247.5 148L247.305 147.54L247.175 147.595L247.093 147.709L247.5 148ZM264 141L263.874 140.516L263.838 140.525L263.805 140.54L264 141ZM275.5 138L275.777 137.584L275.591 137.46L275.374 137.516L275.5 138ZM284.5 144L284.974 144.158L285.095 143.796L284.777 143.584L284.5 144ZM283.5 147L283.026 146.842L282.865 147.323L283.348 147.476L283.5 147ZM294.5 150.5H295V150.134L294.652 150.024L294.5 150.5ZM294.5 158H294V158.5H294.5V158ZM308 158V158.5H309.228L308.349 157.642L308 158ZM287.5 138H287V138.211L287.151 138.358L287.5 138ZM287.5 131L287.751 130.567L287 130.132V131H287.5ZM312.5 145.5L312.967 145.323L312.905 145.157L312.751 145.067L312.5 145.5ZM318 160L317.533 160.177L317.585 160.316L317.704 160.403L318 160ZM325.5 165.5L325.204 165.903L326.471 166.832L325.974 165.342L325.5 165.5ZM323 158V157.5H322.306L322.526 158.158L323 158ZM338 158V158.5H338.145L338.267 158.423L338 158ZM347.5 152L347.767 152.423L348 152.276V152H347.5ZM347.5 141L347.234 140.577L347 140.724V141H347.5ZM369 127.5L369.181 127.034L368.947 126.943L368.734 127.077L369 127.5ZM378 131L378.37 131.336L378.86 130.798L378.181 130.534L378 131ZM373 136.5L372.63 136.164L372.036 136.817L372.902 136.99L373 136.5ZM380.5 138L380.8 137.6L380.709 137.532L380.598 137.51L380.5 138ZM390.5 145.5L390.979 145.644L391.079 145.309L390.8 145.1L390.5 145.5ZM389 150.5V151H389.372L389.479 150.644L389 150.5ZM363 150.5V150H362.908L362.822 150.033L363 150.5ZM352.5 154.5L352.322 154.033L352.299 154.042L352.276 154.053L352.5 154.5ZM345.5 158L345.276 157.553L345 157.691V158H345.5ZM345.5 165.5H345V165.682L345.117 165.821L345.5 165.5ZM361 184L360.617 184.321L360.851 184.601L361.189 184.463L361 184ZM374.5 178.5H375V177.756L374.311 178.037L374.5 178.5ZM374.5 198V198.5H375V198H374.5ZM367.5 198V197.5H366.554L367.087 198.282L367.5 198ZM405 253L405.494 252.926L405.478 252.813L405.413 252.718L405 253ZM406.5 263L406.006 263.074L406.028 263.221L406.126 263.332L406.5 263ZM410.5 267.5L410.126 267.832L410.275 268H410.5V267.5ZM421 267.5V268H421.157L421.285 267.911L421 267.5ZM457 242.5L457.285 242.911L457.719 242.61L457.395 242.193L457 242.5ZM450 233.5L449.553 233.724L449.575 233.768L449.605 233.807L450 233.5ZM447 227.5L447.447 227.276L447.332 227.045L447.076 227.006L447 227.5ZM434 225.5L433.567 225.749L433.687 225.958L433.924 225.994L434 225.5ZM424.5 209L424.735 208.559L423.197 207.738L424.067 209.249L424.5 209ZM432 213L432.306 212.604L432.272 212.579L432.235 212.559L432 213ZM443 221.5L442.694 221.896L442.797 221.975L442.926 221.994L443 221.5ZM453 223L453.274 222.582L453.183 222.522L453.074 222.506L453 223ZM469 233.5L469.325 233.12L469.301 233.1L469.274 233.082L469 233.5ZM479.5 242.5L479.949 242.28L479.903 242.187L479.825 242.12L479.5 242.5ZM493.5 271L493.051 271.22L493.189 271.5H493.5V271ZM498 271V271.5H498.118L498.224 271.447L498 271ZM33 311.5L33.2592 311.072L33.1397 311H33V311.5ZM66 331.5L66.4032 331.204L66.3443 331.124L66.2591 331.072L66 331.5ZM77 346.5L77.4603 346.305L77.4376 346.251L77.4032 346.204L77 346.5ZM84 363L83.5397 363.195L83.6194 363.383L83.8077 363.462L84 363ZM96 368L95.8077 368.462L95.8316 368.471L95.8563 368.479L96 368ZM106 371L106.247 370.565L106.198 370.537L106.144 370.521L106 371ZM121 379.5L121.489 379.397L121.443 379.176L121.247 379.065L121 379.5ZM123 389L123.463 389.189L123.521 389.047L123.489 388.897L123 389ZM113 413.5L112.537 413.311L112.461 413.496L112.535 413.683L113 413.5ZM118.5 427.5L118.803 427.898L119.104 427.669L118.965 427.317L118.5 427.5ZM106 437L106.081 437.493L106.204 437.473L106.303 437.398L106 437ZM27 254L27.1085 254.488L27.4049 254.422L27.4831 254.129L27 254ZM31 239L31.4831 239.129L31.4932 239.091L31.4973 239.052L31 239ZM33.5 215L33.0677 214.749L33.0138 214.841L33.0027 214.948L33.5 215ZM58.5 172L58.9323 172.251L59 172.135V172H58.5ZM58.5 170H59V169.36L58.3787 169.515L58.5 170ZM50.5 172L50.2054 171.596L50.6213 172.485L50.5 172ZM74.5 154.5L74.7946 154.904L74.9554 154.787L74.9916 154.591L74.5 154.5ZM77 141L77.4916 141.091L77.5199 140.939L77.4569 140.797L77 141ZM71 127.5L70.5681 127.248L70.4391 127.469L70.5431 127.703L71 127.5ZM74.5 121.5L74.9319 121.752L75.2056 121.283L74.7154 121.049L74.5 121.5ZM101 93.5L100.692 93.8941L100.786 93.967L100.902 93.9903L101 93.5ZM116 96.5L115.902 96.9903L116.062 97.0222L116.21 96.954L116 96.5ZM129 90.5L129.21 90.954L129.311 90.9071L129.383 90.8213L129 90.5ZM142 75L141.643 74.6504L141.629 74.6641L141.617 74.6787L142 75ZM164 52.5L163.789 52.0469L163.706 52.0854L163.643 52.1504L164 52.5ZM171.5 49L171.711 49.4531L171.853 49.387L171.932 49.2519L171.5 49ZM175 43L175.432 43.2519L175.564 43.0251L175.453 42.7874L175 43ZM227.5 135.5L227.624 135.984L227.737 135.956L227.825 135.88L227.5 135.5ZM238 126.5L238.325 126.88L238.711 126.55L238.375 126.169L238 126.5ZM230.5 118L230.204 117.597L229.763 117.92L230.125 118.331L230.5 118ZM238 112.5L237.795 112.044L237.747 112.065L237.704 112.097L238 112.5ZM252.5 106L252.705 106.456L252.752 106.435L252.793 106.405L252.5 106ZM267 95.5L266.762 95.0604L266.733 95.0759L266.707 95.095L267 95.5ZM279 89L279.306 88.6046L279.048 88.4051L278.762 88.5604L279 89ZM294.5 101L294.194 101.395L294.329 101.5H294.5V101ZM300 101V101.5H300.155L300.283 101.412L300 101ZM308 95.5L308.283 95.912L308.439 95.8048L308.485 95.6213L308 95.5ZM310.5 85.5L310.985 85.6213L311.031 85.4366L310.943 85.268L310.5 85.5ZM305 75L305.443 74.768L305.055 74.0274L304.586 74.7196L305 75ZM294.5 90.5L294.332 90.9709L294.697 91.1012L294.914 90.7804L294.5 90.5ZM280.5 85.5L280.008 85.5869L280.058 85.8731L280.332 85.9709L280.5 85.5ZM279 77L279.492 76.9131L279.419 76.5H279V77ZM264 77H263.5V77.5H264V77ZM264 68L263.692 67.6062L263.5 67.7564V68H264ZM275.5 59L275.36 58.52L275.268 58.5469L275.192 58.6062L275.5 59ZM287.5 55.5L287.64 55.98L287.686 55.9666L287.729 55.9446L287.5 55.5ZM305 46.5V46H304.879L304.771 46.0554L305 46.5ZM341.5 46.5L341.634 46.0184L341.568 46H341.5V46.5ZM363 52.5L363.479 52.3563L363.4 52.0925L363.134 52.0184L363 52.5ZM364.5 57.5L364.021 57.6437L364.041 57.7111L364.079 57.7704L364.5 57.5ZM369 64.5L368.579 64.7704L368.727 65H369V64.5ZM378 64.5V65H378.093L378.18 64.9667L378 64.5ZM384.5 62L384.68 62.4667L384.747 62.4408L384.804 62.3971L384.5 62ZM422 360H422.5V358.39L421.588 359.717L422 360ZM422 376.5L422.476 376.652L422.5 376.578V376.5H422ZM418.5 387.5L418.024 387.348L418.021 387.355L418.019 387.363L418.5 387.5ZM414.5 401.5L414.798 401.902L414.934 401.801L414.981 401.637L414.5 401.5ZM401 411.5L400.646 411.854L400.951 412.158L401.298 411.902L401 411.5ZM393 403.5L392.568 403.248L392.374 403.581L392.646 403.854L393 403.5ZM403.5 385.5L403.932 385.752L404 385.635V385.5H403.5ZM403.5 376.5L403.226 376.082L403 376.23V376.5H403.5ZM416.5 368L416.774 368.418L416.856 368.365L416.912 368.283L416.5 368ZM210.5 181L210.086 180.72L198.586 197.72L199 198L199.414 198.28L210.914 181.28L210.5 181ZM199 198L198.661 197.632L186.161 209.132L186.5 209.5L186.839 209.868L199.339 198.368L199 198ZM186.5 209.5L186.27 209.056L172.77 216.056L173 216.5L173.23 216.944L186.73 209.944L186.5 209.5ZM173 216.5L172.524 216.348L165.524 238.348L166 238.5L166.476 238.652L173.476 216.652L173 216.5ZM166 238.5L165.512 238.607L172.512 270.607L173 270.5L173.488 270.393L166.488 238.393L166 238.5ZM173 270.5L172.628 270.834L198.628 299.834L199 299.5L199.372 299.166L173.372 270.166L173 270.5ZM199 299.5L198.672 299.877L210.172 309.877L210.5 309.5L210.828 309.123L199.328 299.123L199 299.5ZM210.5 309.5L210.634 309.982L246.634 299.982L246.5 299.5L246.366 299.018L210.366 309.018L210.5 309.5ZM246.5 299.5L246.777 299.916L251.277 296.916L251 296.5L250.723 296.084L246.223 299.084L246.5 299.5ZM251 296.5L250.547 296.711L254.047 304.211L254.5 304L254.953 303.789L251.453 296.289L251 296.5ZM254.5 304V304.5H273.5V304V303.5H254.5V304ZM273.5 304L273.007 304.085L275.507 318.585L276 318.5L276.493 318.415L273.993 303.915L273.5 304ZM276 318.5H275.5V331.5H276H276.5V318.5H276ZM276 331.5L275.654 331.861L287.154 342.861L287.5 342.5L287.846 342.139L276.346 331.139L276 331.5ZM287.5 342.5H287V354H287.5H288V342.5H287.5ZM287.5 354L287.053 354.224L294.053 368.224L294.5 368L294.947 367.776L287.947 353.776L287.5 354ZM294.5 368L294.076 367.735L284.076 383.735L284.5 384L284.924 384.265L294.924 368.265L294.5 368ZM284.5 384L284.011 384.105L287.011 398.105L287.5 398L287.989 397.895L284.989 383.895L284.5 384ZM287.5 398L287.084 398.277L294.084 408.777L294.5 408.5L294.916 408.223L287.916 397.723L287.5 398ZM294.5 408.5L294.068 408.751L312.068 439.751L312.5 439.5L312.932 439.249L294.932 408.249L294.5 408.5ZM312.5 439.5H312V448H312.5H313V439.5H312.5ZM312.5 448L312.571 448.495L337.071 444.995L337 444.5L336.929 444.005L312.429 447.505L312.5 448ZM337 444.5L337.338 444.869L349.338 433.869L349 433.5L348.662 433.131L336.662 444.131L337 444.5ZM349 433.5L349.427 433.761L354.927 424.761L354.5 424.5L354.073 424.239L348.573 433.239L349 433.5ZM354.5 424.5L354.762 424.926L367.762 416.926L367.5 416.5L367.238 416.074L354.238 424.074L354.5 424.5ZM367.5 416.5H368V401.5H367.5H367V416.5H367.5ZM367.5 401.5L367.884 401.821L393.384 371.321L393 371L392.616 370.679L367.116 401.179L367.5 401.5ZM393 371L393.497 370.948L390.497 342.448L390 342.5L389.503 342.552L392.503 371.052L393 371ZM390 342.5L390.427 342.761L401.427 324.761L401 324.5L400.573 324.239L389.573 342.239L390 342.5ZM401 324.5L401.403 324.796L430.403 285.296L430 285L429.597 284.704L400.597 324.204L401 324.5ZM430 285V284.5H413V285V285.5H430V285ZM413 285L413.406 284.708L390.406 252.708L390 253L389.594 253.292L412.594 285.292L413 285ZM390 253L390.456 252.794L373.956 216.294L373.5 216.5L373.044 216.706L389.544 253.206L390 253ZM373.5 216.5L373.929 216.243L367.929 206.243L367.5 206.5L367.071 206.757L373.071 216.757L373.5 216.5ZM367.5 206.5L367.709 206.046L349.209 197.546L349 198L348.791 198.454L367.291 206.954L367.5 206.5ZM349 198L349.071 197.505L328.071 194.505L328 195L327.929 195.495L348.929 198.495L349 198ZM328 195L328.424 194.735L325.924 190.735L325.5 191L325.076 191.265L327.576 195.265L328 195ZM325.5 191L325.353 190.522L312.353 194.522L312.5 195L312.647 195.478L325.647 191.478L325.5 191ZM312.5 195V194.5H294.5V195V195.5H312.5V195ZM294.5 195L294.748 194.566L287.748 190.566L287.5 191L287.252 191.434L294.252 195.434L294.5 195ZM287.5 191L287.939 190.761L284.939 185.261L284.5 185.5L284.061 185.739L287.061 191.239L287.5 191ZM284.5 185.5L284.969 185.328L279.469 170.328L279 170.5L278.531 170.672L284.031 185.672L284.5 185.5ZM279 170.5V170H267V170.5V171H279V170.5ZM267 170.5V170H254.5V170.5V171H267V170.5ZM254.5 170.5L254.4 170.01L234.9 174.01L235 174.5L235.1 174.99L254.6 170.99L254.5 170.5ZM235 174.5L234.797 174.043L225.797 178.043L226 178.5L226.203 178.957L235.203 174.957L235 174.5ZM226 178.5L225.92 178.006L210.42 180.506L210.5 181L210.58 181.494L226.08 178.994L226 178.5ZM210 95.5L209.543 95.2969L205.543 104.297L206 104.5L206.457 104.703L210.457 95.7031L210 95.5ZM206 104.5L205.683 104.887L211.183 109.387L211.5 109L211.817 108.613L206.317 104.113L206 104.5ZM211.5 109L211.822 109.382L221.322 101.382L221 101L220.678 100.618L211.178 108.618L211.5 109ZM221 101L220.509 101.092L222.009 109.092L222.5 109L222.991 108.908L221.491 100.908L221 101ZM222.5 109L222.595 109.491L238.095 106.491L238 106L237.905 105.509L222.405 108.509L222.5 109ZM238 106L238.416 106.277L242.416 100.277L242 100L241.584 99.7226L237.584 105.723L238 106ZM242 100L242.411 99.7159L227.911 78.7159L227.5 79L227.089 79.2841L241.589 100.284L242 100ZM227.5 79L227.164 78.63L221.664 83.63L222 84L222.336 84.37L227.836 79.37L227.5 79ZM222 84L221.5 83.9822L221 97.9822L221.5 98L222 98.0178L222.5 84.0178L222 84ZM221.5 98L221.606 97.5114L210.106 95.0114L210 95.5L209.894 95.9886L221.394 98.4886L221.5 98ZM206 141L205.501 140.962L203.501 166.962L204 167L204.499 167.038L206.499 141.038L206 141ZM204 167L203.921 167.494L225.921 170.994L226 170.5L226.079 170.006L204.079 166.506L204 167ZM226 170.5L226.243 170.937L235.243 165.937L235 165.5L234.757 165.063L225.757 170.063L226 170.5ZM235 165.5L235.407 165.791L247.907 148.291L247.5 148L247.093 147.709L234.593 165.209L235 165.5ZM247.5 148L247.695 148.46L264.195 141.46L264 141L263.805 140.54L247.305 147.54L247.5 148ZM264 141L264.126 141.484L275.626 138.484L275.5 138L275.374 137.516L263.874 140.516L264 141ZM275.5 138L275.223 138.416L284.223 144.416L284.5 144L284.777 143.584L275.777 137.584L275.5 138ZM284.5 144L284.026 143.842L283.026 146.842L283.5 147L283.974 147.158L284.974 144.158L284.5 144ZM283.5 147L283.348 147.476L294.348 150.976L294.5 150.5L294.652 150.024L283.652 146.524L283.5 147ZM294.5 150.5H294V158H294.5H295V150.5H294.5ZM294.5 158V158.5H308V158V157.5H294.5V158ZM308 158L308.349 157.642L287.849 137.642L287.5 138L287.151 138.358L307.651 158.358L308 158ZM287.5 138H288V131H287.5H287V138H287.5ZM287.5 131L287.249 131.433L312.249 145.933L312.5 145.5L312.751 145.067L287.751 130.567L287.5 131ZM312.5 145.5L312.033 145.677L317.533 160.177L318 160L318.467 159.823L312.967 145.323L312.5 145.5ZM318 160L317.704 160.403L325.204 165.903L325.5 165.5L325.796 165.097L318.296 159.597L318 160ZM325.5 165.5L325.974 165.342L323.474 157.842L323 158L322.526 158.158L325.026 165.658L325.5 165.5ZM323 158V158.5H338V158V157.5H323V158ZM338 158L338.267 158.423L347.767 152.423L347.5 152L347.233 151.577L337.733 157.577L338 158ZM347.5 152H348V141H347.5H347V152H347.5ZM347.5 141L347.766 141.423L369.266 127.923L369 127.5L368.734 127.077L347.234 140.577L347.5 141ZM369 127.5L368.819 127.966L377.819 131.466L378 131L378.181 130.534L369.181 127.034L369 127.5ZM378 131L377.63 130.664L372.63 136.164L373 136.5L373.37 136.836L378.37 131.336L378 131ZM373 136.5L372.902 136.99L380.402 138.49L380.5 138L380.598 137.51L373.098 136.01L373 136.5ZM380.5 138L380.2 138.4L390.2 145.9L390.5 145.5L390.8 145.1L380.8 137.6L380.5 138ZM390.5 145.5L390.021 145.356L388.521 150.356L389 150.5L389.479 150.644L390.979 145.644L390.5 145.5ZM389 150.5V150H363V150.5V151H389V150.5ZM363 150.5L362.822 150.033L352.322 154.033L352.5 154.5L352.678 154.967L363.178 150.967L363 150.5ZM352.5 154.5L352.276 154.053L345.276 157.553L345.5 158L345.724 158.447L352.724 154.947L352.5 154.5ZM345.5 158H345V165.5H345.5H346V158H345.5ZM345.5 165.5L345.117 165.821L360.617 184.321L361 184L361.383 183.679L345.883 165.179L345.5 165.5ZM361 184L361.189 184.463L374.689 178.963L374.5 178.5L374.311 178.037L360.811 183.537L361 184ZM374.5 178.5H374V198H374.5H375V178.5H374.5ZM374.5 198V197.5H367.5V198V198.5H374.5V198ZM367.5 198L367.087 198.282L404.587 253.282L405 253L405.413 252.718L367.913 197.718L367.5 198ZM405 253L404.506 253.074L406.006 263.074L406.5 263L406.994 262.926L405.494 252.926L405 253ZM406.5 263L406.126 263.332L410.126 267.832L410.5 267.5L410.874 267.168L406.874 262.668L406.5 263ZM410.5 267.5V268H421V267.5V267H410.5V267.5ZM421 267.5L421.285 267.911L457.285 242.911L457 242.5L456.715 242.089L420.715 267.089L421 267.5ZM457 242.5L457.395 242.193L450.395 233.193L450 233.5L449.605 233.807L456.605 242.807L457 242.5ZM450 233.5L450.447 233.276L447.447 227.276L447 227.5L446.553 227.724L449.553 233.724L450 233.5ZM447 227.5L447.076 227.006L434.076 225.006L434 225.5L433.924 225.994L446.924 227.994L447 227.5ZM434 225.5L434.433 225.251L424.933 208.751L424.5 209L424.067 209.249L433.567 225.749L434 225.5ZM424.5 209L424.265 209.441L431.765 213.441L432 213L432.235 212.559L424.735 208.559L424.5 209ZM432 213L431.694 213.396L442.694 221.896L443 221.5L443.306 221.104L432.306 212.604L432 213ZM443 221.5L442.926 221.994L452.926 223.494L453 223L453.074 222.506L443.074 221.006L443 221.5ZM453 223L452.726 223.418L468.726 233.918L469 233.5L469.274 233.082L453.274 222.582L453 223ZM469 233.5L468.675 233.88L479.175 242.88L479.5 242.5L479.825 242.12L469.325 233.12L469 233.5ZM479.5 242.5L479.051 242.72L493.051 271.22L493.5 271L493.949 270.78L479.949 242.28L479.5 242.5ZM493.5 271V271.5H498V271V270.5H493.5V271ZM498 271L498.224 271.447L520.224 260.447L520 260L519.776 259.553L497.776 270.553L498 271ZM5.09996 311.5V312H33V311.5V311H5.09996V311.5ZM33 311.5L32.7408 311.928L65.7409 331.928L66 331.5L66.2591 331.072L33.2592 311.072L33 311.5ZM66 331.5L65.5968 331.796L76.5968 346.796L77 346.5L77.4032 346.204L66.4032 331.204L66 331.5ZM77 346.5L76.5397 346.695L83.5397 363.195L84 363L84.4603 362.805L77.4603 346.305L77 346.5ZM84 363L83.8077 363.462L95.8077 368.462L96 368L96.1923 367.538L84.1923 362.538L84 363ZM96 368L95.8563 368.479L105.856 371.479L106 371L106.144 370.521L96.1437 367.521L96 368ZM106 371L105.753 371.435L120.753 379.935L121 379.5L121.247 379.065L106.247 370.565L106 371ZM121 379.5L120.511 379.603L122.511 389.103L123 389L123.489 388.897L121.489 379.397L121 379.5ZM123 389L122.537 388.811L112.537 413.311L113 413.5L113.463 413.689L123.463 389.189L123 389ZM113 413.5L112.535 413.683L118.035 427.683L118.5 427.5L118.965 427.317L113.465 413.317L113 413.5ZM118.5 427.5L118.197 427.102L105.697 436.602L106 437L106.303 437.398L118.803 427.898L118.5 427.5ZM106 437L105.919 436.507L74.4189 441.687L74.5 442.181L74.5811 442.674L106.081 437.493L106 437ZM0 260L0.108465 260.488L27.1085 254.488L27 254L26.8915 253.512L-0.108465 259.512L0 260ZM27 254L27.4831 254.129L31.4831 239.129L31 239L30.5169 238.871L26.5169 253.871L27 254ZM31 239L31.4973 239.052L33.9973 215.052L33.5 215L33.0027 214.948L30.5027 238.948L31 239ZM33.5 215L33.9323 215.251L58.9323 172.251L58.5 172L58.0677 171.749L33.0677 214.749L33.5 215ZM58.5 172H59V170H58.5H58V172H58.5ZM58.5 170L58.3787 169.515L50.3787 171.515L50.5 172L50.6213 172.485L58.6213 170.485L58.5 170ZM50.5 172L50.7946 172.404L74.7946 154.904L74.5 154.5L74.2054 154.096L50.2054 171.596L50.5 172ZM74.5 154.5L74.9916 154.591L77.4916 141.091L77 141L76.5084 140.909L74.0084 154.409L74.5 154.5ZM77 141L77.4569 140.797L71.4569 127.297L71 127.5L70.5431 127.703L76.5431 141.203L77 141ZM71 127.5L71.4319 127.752L74.9319 121.752L74.5 121.5L74.0681 121.248L70.5681 127.248L71 127.5ZM74.5 121.5L74.7154 121.049L48.5328 108.549L48.3174 109L48.102 109.451L74.2846 121.951L74.5 121.5ZM101 93.5L100.902 93.9903L115.902 96.9903L116 96.5L116.098 96.0097L101.098 93.0097L101 93.5ZM116 96.5L116.21 96.954L129.21 90.954L129 90.5L128.79 90.046L115.79 96.046L116 96.5ZM129 90.5L129.383 90.8213L142.383 75.3213L142 75L141.617 74.6787L128.617 90.1787L129 90.5ZM142 75L142.357 75.3496L164.357 52.8496L164 52.5L163.643 52.1504L141.643 74.6504L142 75ZM164 52.5L164.211 52.9531L171.711 49.4531L171.5 49L171.289 48.5469L163.789 52.0469L164 52.5ZM171.5 49L171.932 49.2519L175.432 43.2519L175 43L174.568 42.7481L171.068 48.7481L171.5 49ZM175 43L175.453 42.7874L163.945 18.2874L163.492 18.5L163.04 18.7126L174.547 43.2126L175 43ZM206 141L206.124 141.484L227.624 135.984L227.5 135.5L227.376 135.016L205.876 140.516L206 141ZM227.5 135.5L227.825 135.88L238.325 126.88L238 126.5L237.675 126.12L227.175 135.12L227.5 135.5ZM238 126.5L238.375 126.169L230.875 117.669L230.5 118L230.125 118.331L237.625 126.831L238 126.5ZM230.5 118L230.796 118.403L238.296 112.903L238 112.5L237.704 112.097L230.204 117.597L230.5 118ZM238 112.5L238.205 112.956L252.705 106.456L252.5 106L252.295 105.544L237.795 112.044L238 112.5ZM252.5 106L252.793 106.405L267.293 95.905L267 95.5L266.707 95.095L252.207 105.595L252.5 106ZM267 95.5L267.238 95.9396L279.238 89.4396L279 89L278.762 88.5604L266.762 95.0604L267 95.5ZM279 89L278.694 89.3954L294.194 101.395L294.5 101L294.806 100.605L279.306 88.6046L279 89ZM294.5 101V101.5H300V101V100.5H294.5V101ZM300 101L300.283 101.412L308.283 95.912L308 95.5L307.717 95.088L299.717 100.588L300 101ZM308 95.5L308.485 95.6213L310.985 85.6213L310.5 85.5L310.015 85.3787L307.515 95.3787L308 95.5ZM310.5 85.5L310.943 85.268L305.443 74.768L305 75L304.557 75.232L310.057 85.732L310.5 85.5ZM305 75L304.586 74.7196L294.086 90.2196L294.5 90.5L294.914 90.7804L305.414 75.2804L305 75ZM294.5 90.5L294.668 90.0291L280.668 85.0291L280.5 85.5L280.332 85.9709L294.332 90.9709L294.5 90.5ZM280.5 85.5L280.992 85.4131L279.492 76.9131L279 77L278.508 77.0869L280.008 85.5869L280.5 85.5ZM279 77V76.5H264V77V77.5H279V77ZM264 77H264.5V68H264H263.5V77H264ZM264 68L264.308 68.3938L275.808 59.3938L275.5 59L275.192 58.6062L263.692 67.6062L264 68ZM275.5 59L275.64 59.48L287.64 55.98L287.5 55.5L287.36 55.02L275.36 58.52L275.5 59ZM287.5 55.5L287.729 55.9446L305.229 46.9446L305 46.5L304.771 46.0554L287.271 55.0554L287.5 55.5ZM305 46.5V47H341.5V46.5V46H305V46.5ZM341.5 46.5L341.366 46.9816L362.866 52.9816L363 52.5L363.134 52.0184L341.634 46.0184L341.5 46.5ZM363 52.5L362.521 52.6437L364.021 57.6437L364.5 57.5L364.979 57.3563L363.479 52.3563L363 52.5ZM364.5 57.5L364.079 57.7704L368.579 64.7704L369 64.5L369.421 64.2296L364.921 57.2296L364.5 57.5ZM369 64.5V65H378V64.5V64H369V64.5ZM378 64.5L378.18 64.9667L384.68 62.4667L384.5 62L384.32 61.5333L377.82 64.0333L378 64.5ZM384.5 62L384.804 62.3971L406.804 45.5698L406.5 45.1727L406.196 44.7755L384.196 61.6029L384.5 62ZM101 93.5L101.308 93.1059L77.6194 74.6059L77.3117 75L77.0039 75.3941L100.692 93.8941L101 93.5ZM422 360H421.5V376.5H422H422.5V360H422ZM422 376.5L421.524 376.348L418.024 387.348L418.5 387.5L418.976 387.652L422.476 376.652L422 376.5ZM418.5 387.5L418.019 387.363L414.019 401.363L414.5 401.5L414.981 401.637L418.981 387.637L418.5 387.5ZM414.5 401.5L414.202 401.098L400.702 411.098L401 411.5L401.298 411.902L414.798 401.902L414.5 401.5ZM401 411.5L401.354 411.146L393.354 403.146L393 403.5L392.646 403.854L400.646 411.854L401 411.5ZM393 403.5L393.432 403.752L403.932 385.752L403.5 385.5L403.068 385.248L392.568 403.248L393 403.5ZM403.5 385.5H404V376.5H403.5H403V385.5H403.5ZM403.5 376.5L403.774 376.918L416.774 368.418L416.5 368L416.226 367.582L403.226 376.082L403.5 376.5ZM416.5 368L416.912 368.283L422.412 360.283L422 360L421.588 359.717L416.088 367.717L416.5 368ZM5.09996 311.5L4.11956 311.697L5.09996 311.5ZM74.5 442.181L73.7866 442.881L74.5 442.181ZM48.3174 109L49.131 109.581L48.3174 109ZM163.492 18.5L163.864 19.4285L163.492 18.5ZM406.5 45.1727L405.936 45.9984L406.5 45.1727ZM77.3117 75L76.609 74.2885L77.3117 75ZM520 260H519C519 403.042 403.042 519 260 519V520V521C404.146 521 521 404.146 521 260H520ZM5.09996 311.5L6.08036 311.303C2.7484 294.721 1 277.565 1 260H0H-1C-1 277.698 0.761675 294.986 4.11956 311.697L5.09996 311.5ZM260 520V519C187.638 519 122.208 489.326 75.2134 441.48L74.5 442.181L73.7866 442.881C121.142 491.094 187.08 521 260 521V520ZM74.5 442.181L75.2134 441.48C40.7171 406.359 16.1567 361.45 6.08036 311.303L5.09996 311.5L4.11956 311.697C14.2745 362.235 39.0262 407.492 73.7866 442.881L74.5 442.181ZM0 260H1C1 203.908 18.8297 151.984 49.131 109.581L48.3174 109L47.5038 108.419C16.9681 151.149 -1 203.478 -1 260H0ZM163.492 18.5L163.864 19.4285C193.587 7.53991 226.028 1 260 1V0V-1C225.77 -1 193.076 5.59003 163.121 17.5715L163.492 18.5ZM260 0V1C314.131 1 364.38 17.6047 405.936 45.9984L406.5 45.1727L407.064 44.347C365.186 15.7334 314.546 -1 260 -1V0ZM406.5 45.1727L405.936 45.9984C474.199 92.6401 519 171.088 519 260H520H521C521 170.4 475.85 91.3455 407.064 44.347L406.5 45.1727ZM48.3174 109L49.131 109.581C57.7834 97.4735 67.4528 86.1419 78.0144 75.7115L77.3117 75L76.609 74.2885C65.9665 84.7989 56.2228 96.2175 47.5038 108.419L48.3174 109ZM77.3117 75L78.0144 75.7115C102.391 51.6379 131.519 32.3658 163.864 19.4285L163.492 18.5L163.121 17.5715C130.524 30.6094 101.172 50.0305 76.609 74.2885L77.3117 75Z" fill="white" mask="url(#path-1-inside-1_671_6609)"/>
        <circle cx="260" cy="260" r="255" stroke="#33000F" stroke-width="10"/>
        <path d="M146.927 152.861H124.432C123.892 152.861 123.451 153.274 123.434 153.813C123.272 159.191 122.527 185.877 123.464 195.471C124.477 205.849 127.045 210.838 134.963 217.595C135.37 217.943 135.979 217.901 136.34 217.505L142.559 210.676C142.797 210.414 143.156 210.298 143.503 210.37L245.436 231.692C245.899 231.789 246.231 232.197 246.231 232.671V238.681V241.326C246.231 241.878 245.783 242.326 245.231 242.326H224.58C224.028 242.326 223.58 242.774 223.58 243.326V257.62C223.58 258.003 223.381 258.343 223.04 258.516C218.394 260.872 185.042 278.448 171.57 304.064C164.972 316.611 163.994 339.029 163.857 344.004C163.842 344.56 164.29 345 164.846 345H173.466C173.929 345 174.329 344.695 174.442 344.246C175.404 340.459 179.971 323.35 186.067 314.867C202.5 292 212.133 282.661 246.231 279.048C257.842 277.818 264.522 277.786 276.13 279.048C309.737 282.702 315 291.5 334.935 314.867C341.743 322.846 346.486 340.402 347.466 344.247C347.58 344.695 347.98 345 348.443 345H356.128C356.695 345 357.148 344.541 357.117 343.975C356.844 338.955 355.304 316.705 348.979 304.064C335.947 278.021 304.654 260.856 300.214 258.519C299.88 258.343 299.687 258.007 299.687 257.63V243.326C299.687 242.774 299.239 242.326 298.687 242.326H277.13C276.578 242.326 276.13 241.878 276.13 241.326V238.681V232.669C276.13 232.197 276.461 231.788 276.924 231.691L378.081 210.344C378.355 210.286 378.642 210.346 378.87 210.51L387.966 217.033C388.005 217.062 388.042 217.095 388.082 217.122C389.804 218.307 399.533 206.873 399.803 195.471C400.193 179.076 399.896 158.503 399.82 153.833C399.811 153.288 399.367 152.861 398.822 152.861H375.888C375.335 152.861 374.888 153.309 374.888 153.861V175.156C374.888 175.708 374.44 176.156 373.888 176.156H282.06C281.529 176.156 281.089 175.747 281.046 175.218C280.811 172.35 279.885 163.615 277.036 159.099C272.71 152.241 267.697 150.091 260.728 150.003C253.596 149.912 248.496 152.186 243.966 159.099C241.012 163.607 239.839 172.405 239.527 175.247C239.47 175.764 239.036 176.156 238.516 176.156H148.927C148.375 176.156 147.927 175.708 147.927 175.156V153.861C147.927 153.309 147.479 152.861 146.927 152.861Z" fill="#002033"/>
        <path d="M353.375 134.097C355.859 133.885 358.358 134.1 360.784 134.73L361.27 134.862L377.133 139.369V143.079L362.048 147.213C358.989 148.051 355.813 148.221 352.696 147.715L305.975 138.84L353.376 134.098L353.375 134.097ZM413.73 134.862C416.307 134.13 418.974 133.871 421.624 134.097V134.098L469.024 138.84L422.303 147.715C419.187 148.221 416.011 148.051 412.952 147.213L397.316 142.929V139.525L413.73 134.862ZM384.745 131H389.704C392.102 131 394.214 133.184 394.214 136.095V147.895H380.234V136.095C380.235 133.184 382.347 131 384.745 131Z" fill="#002033" stroke="#0078D2" stroke-width="2"/>
        <path d="M102.375 134.097C104.859 133.885 107.358 134.1 109.784 134.73L110.27 134.862L126.133 139.369V143.079L111.048 147.213C107.989 148.051 104.813 148.221 101.696 147.715L54.9746 138.84L102.376 134.098L102.375 134.097ZM162.73 134.862C165.307 134.13 167.974 133.871 170.624 134.097V134.098L218.024 138.84L171.303 147.715C168.187 148.221 165.011 148.051 161.952 147.213L146.316 142.929V139.525L162.73 134.862ZM133.745 131H138.704C141.102 131 143.214 133.184 143.214 136.095V147.895H129.234V136.095C129.235 133.184 131.347 131 133.745 131Z" fill="#002033" stroke="#0078D2" stroke-width="2"/>
        <path d="M339.814 362.591C344.092 365.71 345.063 371.739 341.572 375.719C332.641 385.903 321.829 394.313 309.697 400.47C294.71 408.076 278.135 412.027 261.329 412C244.522 411.973 227.96 407.969 212.997 400.314C200.886 394.119 190.1 385.674 181.202 375.461C177.725 371.47 178.715 365.444 183.003 362.339C187.29 359.234 193.246 360.236 196.802 364.157C203.871 371.955 212.311 378.43 221.728 383.248C233.997 389.524 247.578 392.808 261.36 392.83C275.141 392.852 288.732 389.612 301.022 383.375C310.454 378.588 318.914 372.14 326.009 364.365C329.577 360.455 335.537 359.473 339.814 362.591Z" fill="#002033"/>
        <path d="M307.42 337.976C311.291 340.798 312.179 346.271 308.871 349.736C303.764 355.083 297.774 359.543 291.142 362.909C281.925 367.587 271.731 370.017 261.395 370C251.058 369.983 240.872 367.521 231.67 362.813C225.05 359.426 219.074 354.947 213.984 349.583C210.687 346.108 211.593 340.637 215.473 337.828C219.353 335.018 224.729 335.958 228.188 339.271C231.557 342.499 235.389 345.231 239.57 347.37C246.335 350.83 253.824 352.641 261.423 352.653C269.022 352.665 276.516 350.879 283.292 347.44C287.48 345.314 291.32 342.595 294.7 339.378C298.169 336.076 303.549 335.154 307.42 337.976Z" fill="#002033"/>
        <path d="M363.29 398.84C367.597 401.981 368.569 408.044 365.129 412.117C353.504 425.879 339.218 437.202 323.095 445.384C304.097 455.026 283.087 460.034 261.783 460C240.479 459.966 219.485 454.89 200.518 445.187C184.421 436.953 170.172 425.584 158.591 411.785C155.164 407.701 156.156 401.641 160.473 398.514C164.791 395.388 170.797 396.384 174.272 400.426C184.033 411.779 195.926 421.154 209.31 428C225.564 436.315 243.556 440.665 261.814 440.695C280.072 440.724 298.077 436.432 314.359 428.169C327.764 421.366 339.687 412.03 349.485 400.708C352.973 396.677 358.982 395.7 363.29 398.84Z" fill="#002033"/>
    </symbol>

    <symbol id="icon-bell" viewBox="0 0 32 33" fill="none" xmlns="http://www.w3.org/2000/svg">
        <path d="M16 9.5C15.4477 9.5 15 9.94772 15 10.5C15 10.542 15.0026 10.5834 15.0076 10.6241C13.2785 11.0655 12 12.6334 12 14.5V17.5C11.4477 17.5 11 17.9477 11 18.5C11 19.0523 11.4477 19.5 12 19.5H20C20.5523 19.5 21 19.0523 21 18.5C21 17.9477 20.5523 17.5 20 17.5V14.5C20 12.6334 18.7215 11.0655 16.9924 10.6241C16.9974 10.5834 17 10.542 17 10.5C17 9.94772 16.5523 9.5 16 9.5Z" fill="currentColor"/>
        <path d="M18 20.5C18 21.6046 17.1046 22.5 16 22.5C14.8954 22.5 14 21.6046 14 20.5H18Z" fill="currentColor"/>
    </symbol>

    <symbol id="icon-menu" viewBox="0 0 32 33" fill="none" xmlns="http://www.w3.org/2000/svg">
        <path d="M12 11.5C11.4477 11.5 11 11.9477 11 12.5V14.5C11 15.0523 11.4477 15.5 12 15.5H14C14.5523 15.5 15 15.0523 15 14.5V12.5C15 11.9477 14.5523 11.5 14 11.5H12Z" fill="currentColor"/>
        <path d="M12 17.5C11.4477 17.5 11 17.9477 11 18.5V20.5C11 21.0523 11.4477 21.5 12 21.5H14C14.5523 21.5 15 21.0523 15 20.5V18.5C15 17.9477 14.5523 17.5 14 17.5H12Z" fill="currentColor"/>
        <path d="M18 11.5C17.4477 11.5 17 11.9477 17 12.5V14.5C17 15.0523 17.4477 15.5 18 15.5H20C20.5523 15.5 21 15.0523 21 14.5V12.5C21 11.9477 20.5523 11.5 20 11.5H18Z" fill="currentColor"/>
        <path d="M18 17.5C17.4477 17.5 17 17.9477 17 18.5V20.5C17 21.0523 17.4477 21.5 18 21.5H20C20.5523 21.5 21 21.0523 21 20.5V18.5C21 17.9477 20.5523 17.5 20 17.5H18Z" fill="currentColor"/>
    </symbol>

    <symbol id="icon-search" viewBox="0 0 25 24" fill="none" xmlns="http://www.w3.org/2000/svg">
        <path d="M18.3591 16.6168L22.6418 20.8995L21.2276 22.3137L16.9449 18.031C15.405 19.263 13.4521 20 11.3281 20C6.36013 20 2.32812 15.968 2.32812 11C2.32812 6.032 6.36013 2 11.3281 2C16.2961 2 20.3281 6.032 20.3281 11C20.3281 13.124 19.5911 15.0769 18.3591 16.6168ZM16.3528 15.8748C17.5756 14.6146 18.3281 12.8956 18.3281 11C18.3281 7.1325 15.1956 4 11.3281 4C7.46062 4 4.32812 7.1325 4.32812 11C4.32812 14.8675 7.46062 18 11.3281 18C13.2237 18 14.9427 17.2475 16.2029 16.0247L16.3528 15.8748Z" fill="currentColor"/>
    </symbol>

    <symbol id="icon-genres" viewBox="0 0 24 24" fill="none" xmlns="http://www.w3.org/2000/svg">
        <path d="M7 11.5C4.51472 11.5 2.5 9.48528 2.5 7C2.5 4.51472 4.51472 2.5 7 2.5C9.48528 2.5 11.5 4.51472 11.5 7C11.5 9.48528 9.48528 11.5 7 11.5ZM7 21.5C4.51472 21.5 2.5 19.4853 2.5 17C2.5 14.5147 4.51472 12.5 7 12.5C9.48528 12.5 11.5 14.5147 11.5 17C11.5 19.4853 9.48528 21.5 7 21.5ZM17 11.5C14.5147 11.5 12.5 9.48528 12.5 7C12.5 4.51472 14.5147 2.5 17 2.5C19.4853 2.5 21.5 4.51472 21.5 7C21.5 9.48528 19.4853 11.5 17 11.5ZM17 21.5C14.5147 21.5 12.5 19.4853 12.5 17C12.5 14.5147 14.5147 12.5 17 12.5C19.4853 12.5 21.5 14.5147 21.5 17C21.5 19.4853 19.4853 21.5 17 21.5ZM7 9.5C8.38071 9.5 9.5 8.38071 9.5 7C9.5 5.61929 8.38071 4.5 7 4.5C5.61929 4.5 4.5 5.61929 4.5 7C4.5 8.38071 5.61929 9.5 7 9.5ZM7 19.5C8.38071 19.5 9.5 18.3807 9.5 17C9.5 15.6193 8.38071 14.5 7 14.5C5.61929 14.5 4.5 15.6193 4.5 17C4.5 18.3807 5.61929 19.5 7 19.5ZM17 9.5C18.3807 9.5 19.5 8.38071 19.5 7C19.5 5.61929 18.3807 4.5 17 4.5C15.6193 4.5 14.5 5.61929 14.5 7C14.5 8.38071 15.6193 9.5 17 9.5ZM17 19.5C18.3807 19.5 19.5 18.3807 19.5 17C19.5 15.6193 18.3807 14.5 17 14.5C15.6193 14.5 14.5 15.6193 14.5 17C14.5 18.3807 15.6193 19.5 17 19.5Z" fill="currentColor"/>
    </symbol>

    <symbol id="icon-email" viewBox="0 0 22 19" fill="none" xmlns="http://www.w3.org/2000/svg">
        <path d="M21 0.75C21.5523 0.75 22 1.19772 22 1.75V17.7566C22 18.3052 21.5447 18.75 21.0082 18.75H2.9918C2.44405 18.75 2 18.3051 2 17.7566V16.75H20V5.05L12 12.25L2 3.25V1.75C2 1.19772 2.44772 0.75 3 0.75H21ZM8 12.75V14.75H0V12.75H8ZM5 7.75V9.75H0V7.75H5ZM19.5659 2.75H4.43414L12 9.5593L19.5659 2.75Z" fill="currentColor"/>
    </symbol>

    <symbol id="icon-user" viewBox="0 0 16 22" fill="none" xmlns="http://www.w3.org/2000/svg">
        <path d="M0 21.75C0 17.3317 3.58172 13.75 8 13.75C12.4183 13.75 16 17.3317 16 21.75H14C14 18.4363 11.3137 15.75 8 15.75C4.68629 15.75 2 18.4363 2 21.75H0ZM8 12.75C4.685 12.75 2 10.065 2 6.75C2 3.435 4.685 0.75 8 0.75C11.315 0.75 14 3.435 14 6.75C14 10.065 11.315 12.75 8 12.75ZM8 10.75C10.21 10.75 12 8.96 12 6.75C12 4.54 10.21 2.75 8 2.75C5.79 2.75 4 4.54 4 6.75C4 8.96 5.79 10.75 8 10.75Z" fill="currentColor"/>
    </symbol>

    <symbol id="icon-password" viewBox="0 0 22 13" fill="none" xmlns="http://www.w3.org/2000/svg">
        <path d="M11.917 7.75C11.441 10.5877 8.973 12.75 6 12.75C2.68629 12.75 0 10.0637 0 6.75C0 3.43629 2.68629 0.75 6 0.75C8.973 0.75 11.441 2.91229 11.917 5.75H22V7.75H20V11.75H18V7.75H16V11.75H14V7.75H11.917ZM6 10.75C8.20914 10.75 10 8.9591 10 6.75C10 4.54086 8.20914 2.75 6 2.75C3.79086 2.75 2 4.54086 2 6.75C2 8.9591 3.79086 10.75 6 10.75Z" fill="currentColor"/>
    </symbol>

    <symbol id="icon-close" viewBox="0 0 24 24" fill="none" xmlns="http://www.w3.org/2000/svg">
        <path d="M11.9987 10.5865L16.9485 5.63672L18.3627 7.05093L13.4129 12.0007L18.3627 16.9504L16.9485 18.3646L11.9987 13.4149L7.04899 18.3646L5.63477 16.9504L10.5845 12.0007L5.63477 7.05093L7.04899 5.63672L11.9987 10.5865Z" fill="currentColor"/>
    </symbol>

    <symbol id="icon-ratingStar" viewBox="0 0 16 16" fill="none" xmlns="http://www.w3.org/2000/svg">
        <path d="M8.00056 12.1734L3.29826 14.8055L4.34848 9.51997L0.39209 5.86124L5.74345 5.22675L8.00056 0.333374L10.2576 5.22675L15.609 5.86124L11.6526 9.51997L12.7028 14.8055L8.00056 12.1734Z" fill="currentColor"/>  
    </symbol>

    <symbol id="icon-favorites" viewBox="0 0 24 24" fill="none" xmlns="http://www.w3.org/2000/svg">
        <path d="M16.5 3C19.5376 3 22 5.5 22 9C22 16 14.5 20 12 21.5C9.5 20 2 16 2 9C2 5.5 4.5 3 7.5 3C9.35997 3 11 4 12 5C13 4 14.64 3 16.5 3ZM12.9339 18.6038C13.8155 18.0485 14.61 17.4955 15.3549 16.9029C18.3337 14.533 20 11.9435 20 9C20 6.64076 18.463 5 16.5 5C15.4241 5 14.2593 5.56911 13.4142 6.41421L12 7.82843L10.5858 6.41421C9.74068 5.56911 8.5759 5 7.5 5C5.55906 5 4 6.6565 4 9C4 11.9435 5.66627 14.533 8.64514 16.9029C9.39 17.4955 10.1845 18.0485 11.0661 18.6038C11.3646 18.7919 11.6611 18.9729 12 19.1752C12.3389 18.9729 12.6354 18.7919 12.9339 18.6038Z" fill="currentColor"/>
    </symbol>

    <symbol id="icon-favorites-filled" viewBox="0 0 24 24" fill="none" xmlns="http://www.w3.org/2000/svg">
        <path d="M16.5 3C19.5376 3 22 5.5 22 9C22 16 14.5 20 12 21.5C9.5 20 2 16 2 9C2 5.5 4.5 3 7.5 3C9.35997 3 11 4 12 5C13 4 14.64 3 16.5 3Z" fill="#B4A9FF"/>
    </symbol>

    <symbol id="icon-update" viewBox="0 0 20 20" fill="none" xmlns="http://www.w3.org/2000/svg">
        <path d="M10 2C12.7486 2 15.1749 3.38626 16.6156 5.5H14V7.5H20V1.5H18V3.99936C16.1762 1.57166 13.2724 0 10 0C4.47715 0 0 4.47715 0 10H2C2 5.58172 5.58172 2 10 2ZM18 10C18 14.4183 14.4183 18 10 18C7.25144 18 4.82508 16.6137 3.38443 14.5H6V12.5H0V18.5H2V16.0006C3.82381 18.4283 6.72764 20 10 20C15.5228 20 20 15.5228 20 10H18Z" fill="currentColor"/>
    </symbol>

    <symbol id="icon-chevron" viewBox="0 0 40 40" fill="none" xmlns="http://www.w3.org/2000/svg">
        <path d="M18.047 20.0012L26.2967 28.2507L23.9397 30.6077L13.333 20.0012L23.9397 9.39453L26.2967 11.7515L18.047 20.0012Z" fill="currentColor"/>
    </symbol>

    <symbol id="icon-vk" viewBox="0 0 19 11" fill="none" xmlns="http://www.w3.org/2000/svg">
        <path fill-rule="evenodd" clip-rule="evenodd" d="M18.4875 1.37968C18.6262 0.985106 18.4875 0.698125 17.8729 0.698125H15.8308C15.3153 0.698125 15.0774 0.949207 14.9387 1.21829C14.9387 1.21829 13.8879 3.51408 12.4207 5.00273C11.9449 5.4332 11.7268 5.57669 11.4691 5.57669C11.3303 5.57669 11.1519 5.4332 11.1519 5.03862V1.36173C11.1519 0.895411 10.9933 0.680176 10.5571 0.680176H7.34533C7.02811 0.680176 6.82988 0.895411 6.82988 1.11065C6.82988 1.55907 7.56341 1.66666 7.64271 2.92217V5.64843C7.64271 6.24034 7.52379 6.34793 7.26603 6.34793C6.57213 6.34793 4.88694 4.03419 3.87581 1.39763C3.67752 0.877462 3.47929 0.680176 2.96384 0.680176H0.901906C0.307142 0.680176 0.208008 0.93131 0.208008 1.20034C0.208008 1.68461 0.901906 4.12389 3.43961 7.35236C5.12485 9.55846 7.52379 10.7422 9.6848 10.7422C10.9933 10.7422 11.1519 10.4732 11.1519 10.0248V8.3568C11.1519 7.81868 11.2708 7.72904 11.6872 7.72904C11.9846 7.72904 12.5199 7.87248 13.7292 8.9307C15.117 10.1862 15.355 10.7602 16.1282 10.7602H18.1703C18.765 10.7602 19.0426 10.4911 18.884 9.97098C18.7056 9.45087 18.0315 8.69757 17.1591 7.80073C16.6833 7.29857 15.9696 6.74256 15.7515 6.47347C15.4541 6.1148 15.5334 5.97131 15.7515 5.64843C15.7317 5.64843 18.2297 2.45585 18.4875 1.37968Z" fill="currentColor" fill-opacity="0.8"/>
    </symbol>

    <symbol id="icon-tg" viewBox="0 0 17 15" fill="none" xmlns="http://www.w3.org/2000/svg">
        <path d="M0.600573 6.85881C2.28392 5.93157 4.163 5.15769 5.91872 4.37985C8.93924 3.10581 11.9718 1.85385 15.0349 0.688292C15.6309 0.489692 16.7017 0.295472 16.8067 1.17867C16.7492 2.42883 16.5127 3.67167 16.3504 4.91451C15.9387 7.64763 15.4627 10.3714 14.9986 13.0955C14.8387 14.0029 13.702 14.4726 12.9747 13.892C11.2268 12.7113 9.46544 11.5421 7.73984 10.3341C7.17458 9.75969 7.69874 8.93487 8.20358 8.52471C9.64322 7.10595 11.17 5.90055 12.5344 4.40847C12.9024 3.51969 11.815 4.26873 11.4563 4.49823C9.48542 5.85639 7.56278 7.29747 5.48486 8.49111C4.42346 9.07539 3.18638 8.57607 2.12546 8.25003C1.17421 7.85619 -0.219723 7.45941 0.600477 6.85887L0.600573 6.85881Z" fill="currentColor" fill-opacity="0.8"/>
    </symbol>

    <symbol id="icon-ok" viewBox="0 0 12 19" fill="none" xmlns="http://www.w3.org/2000/svg">
        <path d="M7.91902 13.2623L10.5725 15.8239C11.116 16.3475 11.116 17.1979 10.5725 17.7221C10.0294 18.2462 9.14932 18.2462 8.60687 17.7221L5.99801 15.2049L3.39142 17.7221C3.11963 17.9839 2.76349 18.1149 2.40735 18.1149C2.05178 18.1149 1.69621 17.9839 1.42441 17.7221C0.881398 17.1979 0.881398 16.348 1.42385 15.8239L4.07758 13.2623C3.1114 13.0498 2.17958 12.6802 1.32132 12.1605C0.671803 11.7651 0.476693 10.937 0.885942 10.3094C1.29406 9.68109 2.15232 9.49193 2.80297 9.88725C4.74612 11.0672 7.24933 11.0674 9.19362 9.88725C9.84428 9.49193 10.7023 9.68109 11.1112 10.3094C11.5205 10.9364 11.3248 11.7651 10.6753 12.1605C9.81701 12.6808 8.8852 13.0498 7.91902 13.2623Z" fill="currentColor" fill-opacity="0.8"/>
        <path fill-rule="evenodd" clip-rule="evenodd" d="M1.24023 4.94198C1.24023 7.46795 3.36913 9.52267 5.98679 9.52267C8.60502 9.52267 10.7333 7.46795 10.7333 4.94198C10.7333 2.41518 8.60502 0.359909 5.98679 0.359909C3.36913 0.359909 1.24023 2.41518 1.24023 4.94198ZM7.95202 4.94149C7.95202 3.89535 7.07048 3.04468 5.98672 3.04468C4.90381 3.04468 4.02141 3.89535 4.02141 4.94149C4.02141 5.98681 4.90381 6.83803 5.98672 6.83803C7.07048 6.83803 7.95202 5.98681 7.95202 4.94149Z" fill="currentColor" fill-opacity="0.8"/>
    </symbol>

    <symbol id="icon-youtube" viewBox="0 0 16 12" fill="none" xmlns="http://www.w3.org/2000/svg">
        <path fill-rule="evenodd" clip-rule="evenodd" d="M14.0008 1.04957C14.6617 1.23093 15.1822 1.7653 15.3588 2.4439C15.6798 3.67379 15.6798 6.23997 15.6798 6.23997C15.6798 6.23997 15.6798 8.80606 15.3588 10.036C15.1822 10.7146 14.6617 11.249 14.0008 11.4305C12.8031 11.76 7.99982 11.76 7.99982 11.76C7.99982 11.76 3.1966 11.76 1.99878 11.4305C1.33786 11.249 0.817366 10.7146 0.640726 10.036C0.319824 8.80606 0.319824 6.23997 0.319824 6.23997C0.319824 6.23997 0.319824 3.67379 0.640726 2.4439C0.817366 1.7653 1.33786 1.23093 1.99878 1.04957C3.1966 0.719971 7.99982 0.719971 7.99982 0.719971C7.99982 0.719971 12.8031 0.719971 14.0008 1.04957ZM6.55979 4.0802V8.88021L10.3998 6.4803L6.55979 4.0802Z" fill="currentColor" fill-opacity="0.8"/>
    </symbol>


</svg>
