<svg xmlns="http://www.w3.org/2000/svg">

    <symbol id="logo-skilldrones" viewBox="0 0 443 180" fill="none" xmlns="http://www.w3.org/2000/svg">
        <path d="M87.9266 8.43853H80.8637C80.3242 8.43853 79.8824 8.8605 79.8671 9.39984C79.7854 12.2907 79.5774 20.906 79.8959 24.1683C80.2498 27.7933 81.1175 29.6371 83.6855 31.938C84.0841 32.2951 84.6952 32.2519 85.0556 31.8562L86.7022 30.0479C86.9406 29.7861 87.2997 29.6699 87.6463 29.7424L124.421 37.4347C124.885 37.5316 125.217 37.9402 125.217 38.4135V40.1197V40.4654C125.217 41.0177 124.769 41.4654 124.217 41.4654H117.855C117.303 41.4654 116.855 41.9131 116.855 42.4654V46.7167C116.855 47.0993 116.642 47.4464 116.303 47.6237C113.675 48.997 102.369 55.2935 97.6548 64.2566C95.4366 68.4744 94.9391 75.7146 94.8296 78.3616C94.8066 78.9175 95.2536 79.3684 95.81 79.3684H97.8573C98.3198 79.3684 98.7221 79.0537 98.8406 78.6067C99.374 76.5947 100.956 71.0977 103.006 68.2445C109.073 59.803 112.629 56.3555 125.217 55.0216C129.503 54.5674 131.969 54.5557 136.254 55.0216C148.66 56.3706 150.603 59.6184 157.963 68.2445C160.255 70.9313 161.913 76.5604 162.461 78.6053C162.581 79.0523 162.984 79.3684 163.447 79.3684H165.13C165.698 79.3684 166.149 78.9012 166.111 78.3351C165.932 75.6742 165.27 68.4993 163.147 64.2566C158.594 55.1582 148.004 48.9952 145.492 47.6289C145.16 47.4484 144.95 47.1039 144.95 46.7262V42.4654C144.95 41.9131 144.503 41.4654 143.95 41.4654L137.254 41.4654C136.702 41.4654 136.254 41.0177 136.254 40.4654V40.1197V38.4121C136.254 37.9394 136.585 37.5312 137.048 37.4336L173.618 29.7164C173.893 29.6584 174.179 29.7186 174.407 29.8822L177.502 32.1014C177.541 32.1298 177.578 32.1663 177.624 32.1819C178.36 32.4302 181.811 28.2936 181.909 24.1683C182.04 18.6721 181.961 11.9037 181.925 9.41545C181.917 8.87041 181.473 8.43853 180.927 8.43853H173.711C173.159 8.43853 172.711 8.88625 172.711 9.43853V16.038C172.711 16.5903 172.264 17.038 171.711 17.038L139.04 17.038C138.509 17.038 138.069 16.6247 138.013 16.0967C137.866 14.7191 137.486 12.1635 136.589 10.7415C134.992 8.20967 133.141 7.4158 130.568 7.38327C127.936 7.34998 126.053 8.18946 124.38 10.7415C123.447 12.1665 122.995 14.7531 122.812 16.1257C122.743 16.641 122.308 17.038 121.788 17.038H89.9266C89.3743 17.038 88.9266 16.5903 88.9266 16.038V9.43853C88.9266 8.88625 88.4789 8.43853 87.9266 8.43853Z" fill="#0078D2"/>
        <path d="M164.831 2.14062C165.73 2.06503 166.635 2.15249 167.511 2.40137L172.909 3.93457V4.34668L167.804 5.74609C166.762 6.03162 165.681 6.08905 164.621 5.91699L151.67 3.45703L164.831 2.14062ZM187.222 2.40137C188.098 2.15239 189.004 2.0648 189.904 2.14062L203.061 3.45703L190.112 5.91699C189.052 6.08895 187.971 6.03152 186.929 5.74609L181.621 4.29102V3.99219L187.222 2.40137ZM176.349 1L178.18 1C178.659 1.00007 179.214 1.4624 179.214 2.25V5.97559H175.315V2.25C175.315 1.46246 175.871 1.00014 176.349 1Z" fill="#0078D2" stroke="#0071B3" stroke-width="2"/>
        <path d="M72.1719 2.14062C73.0711 2.06503 73.9767 2.15249 74.8525 2.40137L80.25 3.93457V4.34668L75.1455 5.74609C74.1034 6.03162 73.0224 6.08905 71.9619 5.91699L59.0117 3.45703L72.1719 2.14062ZM94.5635 2.40137C95.4398 2.15239 96.3455 2.0648 97.2451 2.14062L110.402 3.45703L97.4531 5.91699C96.3928 6.08895 95.3124 6.03152 94.2705 5.74609L88.9619 4.29102V3.99219L94.5635 2.40137ZM83.6904 1L85.5215 1C86.0001 1.00007 86.5556 1.4624 86.5557 2.25V5.97559H82.6562V2.25C82.6563 1.46246 83.2119 1.00014 83.6904 1Z" fill="#0078D2" stroke="#0071B3" stroke-width="2"/>
        <path d="M194.409 157.397H176.188V98.352H195.216C200.944 98.352 205.845 99.5341 209.92 101.898C213.994 104.243 217.118 107.616 219.29 112.018C221.462 116.4 222.548 121.647 222.548 127.759C222.548 133.91 221.452 139.205 219.261 143.645C217.07 148.066 213.879 151.468 209.689 153.851C205.499 156.215 200.405 157.397 194.409 157.397ZM183.338 151.055H193.947C198.829 151.055 202.875 150.113 206.085 148.229C209.295 146.346 211.688 143.664 213.264 140.185C214.84 136.707 215.628 132.565 215.628 127.759C215.628 122.993 214.85 118.889 213.293 115.449C211.736 111.989 209.41 109.337 206.316 107.491C203.221 105.627 199.368 104.695 194.755 104.695H183.338V151.055ZM233.619 157.397V113.113H240.192V119.802H240.653C241.461 117.611 242.921 115.833 245.036 114.468C247.15 113.104 249.533 112.421 252.186 112.421C252.685 112.421 253.31 112.431 254.06 112.45C254.809 112.469 255.376 112.498 255.761 112.537V119.456C255.53 119.398 255.001 119.312 254.175 119.197C253.368 119.062 252.512 118.995 251.609 118.995C249.456 118.995 247.534 119.447 245.843 120.35C244.171 121.234 242.844 122.464 241.864 124.04C240.903 125.597 240.423 127.375 240.423 129.374V157.397H233.619ZM280.469 158.32C276.471 158.32 272.963 157.369 269.945 155.466C266.947 153.563 264.602 150.901 262.911 147.48C261.238 144.058 260.402 140.061 260.402 135.486C260.402 130.873 261.238 126.846 262.911 123.406C264.602 119.965 266.947 117.294 269.945 115.391C272.963 113.488 276.471 112.537 280.469 112.537C284.466 112.537 287.965 113.488 290.963 115.391C293.981 117.294 296.326 119.965 297.998 123.406C299.689 126.846 300.535 130.873 300.535 135.486C300.535 140.061 299.689 144.058 297.998 147.48C296.326 150.901 293.981 153.563 290.963 155.466C287.965 157.369 284.466 158.32 280.469 158.32ZM280.469 152.208C283.505 152.208 286.004 151.429 287.965 149.873C289.925 148.316 291.376 146.269 292.318 143.732C293.26 141.195 293.731 138.446 293.731 135.486C293.731 132.526 293.26 129.768 292.318 127.212C291.376 124.655 289.925 122.589 287.965 121.013C286.004 119.437 283.505 118.649 280.469 118.649C277.432 118.649 274.933 119.437 272.973 121.013C271.012 122.589 269.561 124.655 268.619 127.212C267.677 129.768 267.206 132.526 267.206 135.486C267.206 138.446 267.677 141.195 268.619 143.732C269.561 146.269 271.012 148.316 272.973 149.873C274.933 151.429 277.432 152.208 280.469 152.208ZM317.725 130.758V157.397H310.921V113.113H317.495V120.033H318.071C319.109 117.784 320.685 115.977 322.799 114.613C324.914 113.229 327.643 112.537 330.987 112.537C333.986 112.537 336.609 113.152 338.858 114.382C341.107 115.593 342.856 117.438 344.105 119.917C345.355 122.378 345.979 125.491 345.979 129.259V157.397H339.175V129.72C339.175 126.241 338.272 123.531 336.465 121.59C334.658 119.629 332.179 118.649 329.027 118.649C326.855 118.649 324.914 119.12 323.203 120.062C321.512 121.003 320.176 122.378 319.196 124.184C318.215 125.991 317.725 128.182 317.725 130.758ZM376.98 158.32C372.713 158.32 369.032 157.378 365.937 155.495C362.862 153.592 360.488 150.939 358.816 147.537C357.163 144.116 356.337 140.137 356.337 135.601C356.337 131.065 357.163 127.067 358.816 123.608C360.488 120.129 362.814 117.419 365.793 115.477C368.792 113.517 372.29 112.537 376.288 112.537C378.594 112.537 380.872 112.921 383.121 113.69C385.369 114.459 387.416 115.708 389.262 117.438C391.107 119.149 392.577 121.417 393.673 124.242C394.768 127.067 395.316 130.546 395.316 134.679V137.562H361.18V131.68H388.397C388.397 129.182 387.897 126.952 386.897 124.992C385.917 123.031 384.514 121.484 382.688 120.35C380.881 119.216 378.748 118.649 376.288 118.649C373.578 118.649 371.233 119.322 369.253 120.667C367.293 121.993 365.784 123.723 364.727 125.857C363.669 127.99 363.141 130.277 363.141 132.718V136.639C363.141 139.984 363.717 142.819 364.871 145.144C366.043 147.451 367.667 149.21 369.743 150.42C371.819 151.612 374.231 152.208 376.98 152.208C378.767 152.208 380.382 151.958 381.823 151.458C383.284 150.939 384.543 150.171 385.6 149.152C386.657 148.114 387.474 146.826 388.051 145.289L394.624 147.134C393.932 149.363 392.769 151.324 391.136 153.015C389.502 154.687 387.484 155.994 385.081 156.936C382.679 157.859 379.978 158.32 376.98 158.32ZM437.034 123.031L430.922 124.761C430.538 123.742 429.971 122.752 429.221 121.791C428.491 120.811 427.491 120.004 426.223 119.37C424.954 118.735 423.33 118.418 421.35 118.418C418.64 118.418 416.382 119.043 414.575 120.292C412.787 121.522 411.894 123.089 411.894 124.992C411.894 126.683 412.509 128.019 413.739 128.999C414.969 129.979 416.891 130.796 419.505 131.45L426.078 133.064C430.038 134.025 432.988 135.496 434.93 137.475C436.871 139.436 437.841 141.963 437.841 145.058C437.841 147.595 437.111 149.863 435.65 151.862C434.209 153.861 432.191 155.437 429.596 156.59C427.001 157.743 423.983 158.32 420.543 158.32C416.026 158.32 412.288 157.34 409.328 155.379C406.368 153.419 404.494 150.555 403.706 146.788L410.164 145.173C410.779 147.557 411.942 149.344 413.652 150.536C415.382 151.727 417.641 152.323 420.428 152.323C423.599 152.323 426.117 151.651 427.981 150.305C429.865 148.94 430.807 147.307 430.807 145.404C430.807 143.866 430.269 142.578 429.192 141.541C428.116 140.483 426.463 139.695 424.233 139.176L416.853 137.447C412.797 136.486 409.818 134.996 407.915 132.978C406.031 130.94 405.09 128.394 405.09 125.338C405.09 122.839 405.791 120.629 407.194 118.707C408.617 116.784 410.548 115.276 412.989 114.18C415.45 113.085 418.237 112.537 421.35 112.537C425.733 112.537 429.173 113.498 431.672 115.42C434.19 117.342 435.977 119.879 437.034 123.031Z" fill="#0078D2"/>
        <path d="M46.4741 108.532C45.4535 105.773 43.5583 103.896 40.7884 102.903C38.0184 101.91 34.8957 101.831 31.4201 102.669C28.8788 103.281 26.7542 104.228 25.0463 105.509C23.3571 106.786 22.1532 108.272 21.4347 109.967C20.7349 111.658 20.6056 113.419 21.0467 115.251C21.4159 116.783 22.0976 118.012 23.0919 118.939C24.1004 119.843 25.2718 120.52 26.6058 120.969C27.9354 121.4 29.2918 121.696 30.675 121.857C32.0537 122 33.3093 122.083 34.4419 122.107L40.6501 122.272C42.2395 122.304 44.0331 122.445 46.0309 122.695C48.0473 122.941 50.0405 123.459 52.0103 124.25C53.9943 125.018 55.7604 126.194 57.3085 127.778C58.8566 129.362 59.9548 131.5 60.603 134.191C61.3503 137.293 61.2126 140.291 60.1901 143.187C59.1864 146.078 57.3113 148.635 54.5651 150.859C51.8375 153.078 48.2688 154.718 43.8589 155.781C39.748 156.771 36.0285 156.965 32.7004 156.363C29.3911 155.757 26.591 154.474 24.3002 152.515C22.0281 150.551 20.4018 148.027 19.4213 144.942L26.5967 143.213C27.3058 145.336 28.4667 146.954 30.0794 148.068C31.7064 149.159 33.5841 149.814 35.7127 150.032C37.8555 150.228 40.0667 150.051 42.3464 149.502C44.9998 148.863 47.2787 147.859 49.1832 146.491C51.0831 145.104 52.4629 143.487 53.3226 141.638C54.1777 139.772 54.3532 137.792 53.8491 135.699C53.3899 133.793 52.4837 132.371 51.1305 131.431C49.7773 130.492 48.1418 129.858 46.224 129.529C44.3061 129.2 42.2706 128.999 40.1175 128.924L32.568 128.608C27.7728 128.399 23.7791 127.413 20.5869 125.652C17.3946 123.89 15.3326 121.075 14.4008 117.207C13.6266 113.993 13.8202 110.981 14.9819 108.171C16.1576 105.337 18.0619 102.901 20.6947 100.863C23.3417 98.8023 26.4964 97.3306 30.1588 96.4483C33.8587 95.557 37.3072 95.4281 40.5044 96.0616C43.6972 96.6764 46.409 97.9211 48.6399 99.7956C50.8895 101.666 52.4099 104.038 53.2011 106.911L46.4741 108.532ZM77.2742 130.056L75.1905 121.899L76.5359 121.574L90.7528 97.8652L98.9373 95.8935L83.7572 121.021L83.1966 121.156L77.2742 130.056ZM74.8891 147.238L61.0606 89.8344L67.6755 88.2409L81.5039 145.644L74.8891 147.238ZM102.245 140.648L80.2963 123.397L83.8978 117.666L110.654 138.622L102.245 140.648ZM117.822 136.895L107.451 93.8426L114.066 92.249L124.437 135.302L117.822 136.895ZM109.086 85.8569C107.797 86.1675 106.579 85.9962 105.433 85.343C104.306 84.6854 103.594 83.7399 103.297 82.5066C103 81.2734 103.203 80.1073 103.907 79.0085C104.63 77.9052 105.636 77.1982 106.925 76.8876C108.215 76.577 109.423 76.7506 110.55 77.4082C111.696 78.0614 112.417 79.0046 112.715 80.2379C113.012 81.4712 112.799 82.6395 112.076 83.7428C111.372 84.8416 110.375 85.5463 109.086 85.8569ZM129.339 73.3861L143.168 130.789L136.553 132.383L122.724 74.9796L129.339 73.3861ZM148.07 68.8739L161.898 126.277L155.283 127.871L141.455 70.4674L148.07 68.8739Z" fill="#56B9F2"/>
    </symbol>


    <symbol id="icon-bell" viewBox="0 0 32 33" fill="none" xmlns="http://www.w3.org/2000/svg">
        <path d="M16 9.5C15.4477 9.5 15 9.94772 15 10.5C15 10.542 15.0026 10.5834 15.0076 10.6241C13.2785 11.0655 12 12.6334 12 14.5V17.5C11.4477 17.5 11 17.9477 11 18.5C11 19.0523 11.4477 19.5 12 19.5H20C20.5523 19.5 21 19.0523 21 18.5C21 17.9477 20.5523 17.5 20 17.5V14.5C20 12.6334 18.7215 11.0655 16.9924 10.6241C16.9974 10.5834 17 10.542 17 10.5C17 9.94772 16.5523 9.5 16 9.5Z" fill="currentColor"/>
        <path d="M18 20.5C18 21.6046 17.1046 22.5 16 22.5C14.8954 22.5 14 21.6046 14 20.5H18Z" fill="currentColor"/>
    </symbol>

    <symbol id="icon-menu" viewBox="0 0 32 33" fill="none" xmlns="http://www.w3.org/2000/svg">
        <path d="M12 11.5C11.4477 11.5 11 11.9477 11 12.5V14.5C11 15.0523 11.4477 15.5 12 15.5H14C14.5523 15.5 15 15.0523 15 14.5V12.5C15 11.9477 14.5523 11.5 14 11.5H12Z" fill="currentColor"/>
        <path d="M12 17.5C11.4477 17.5 11 17.9477 11 18.5V20.5C11 21.0523 11.4477 21.5 12 21.5H14C14.5523 21.5 15 21.0523 15 20.5V18.5C15 17.9477 14.5523 17.5 14 17.5H12Z" fill="currentColor"/>
        <path d="M18 11.5C17.4477 11.5 17 11.9477 17 12.5V14.5C17 15.0523 17.4477 15.5 18 15.5H20C20.5523 15.5 21 15.0523 21 14.5V12.5C21 11.9477 20.5523 11.5 20 11.5H18Z" fill="currentColor"/>
        <path d="M18 17.5C17.4477 17.5 17 17.9477 17 18.5V20.5C17 21.0523 17.4477 21.5 18 21.5H20C20.5523 21.5 21 21.0523 21 20.5V18.5C21 17.9477 20.5523 17.5 20 17.5H18Z" fill="currentColor"/>
    </symbol>







    <symbol id="icon-search" viewBox="0 0 25 24" fill="none" xmlns="http://www.w3.org/2000/svg">
        <path d="M18.3591 16.6168L22.6418 20.8995L21.2276 22.3137L16.9449 18.031C15.405 19.263 13.4521 20 11.3281 20C6.36013 20 2.32812 15.968 2.32812 11C2.32812 6.032 6.36013 2 11.3281 2C16.2961 2 20.3281 6.032 20.3281 11C20.3281 13.124 19.5911 15.0769 18.3591 16.6168ZM16.3528 15.8748C17.5756 14.6146 18.3281 12.8956 18.3281 11C18.3281 7.1325 15.1956 4 11.3281 4C7.46062 4 4.32812 7.1325 4.32812 11C4.32812 14.8675 7.46062 18 11.3281 18C13.2237 18 14.9427 17.2475 16.2029 16.0247L16.3528 15.8748Z" fill="currentColor"/>
    </symbol>

    <symbol id="icon-genres" viewBox="0 0 24 24" fill="none" xmlns="http://www.w3.org/2000/svg">
        <path d="M7 11.5C4.51472 11.5 2.5 9.48528 2.5 7C2.5 4.51472 4.51472 2.5 7 2.5C9.48528 2.5 11.5 4.51472 11.5 7C11.5 9.48528 9.48528 11.5 7 11.5ZM7 21.5C4.51472 21.5 2.5 19.4853 2.5 17C2.5 14.5147 4.51472 12.5 7 12.5C9.48528 12.5 11.5 14.5147 11.5 17C11.5 19.4853 9.48528 21.5 7 21.5ZM17 11.5C14.5147 11.5 12.5 9.48528 12.5 7C12.5 4.51472 14.5147 2.5 17 2.5C19.4853 2.5 21.5 4.51472 21.5 7C21.5 9.48528 19.4853 11.5 17 11.5ZM17 21.5C14.5147 21.5 12.5 19.4853 12.5 17C12.5 14.5147 14.5147 12.5 17 12.5C19.4853 12.5 21.5 14.5147 21.5 17C21.5 19.4853 19.4853 21.5 17 21.5ZM7 9.5C8.38071 9.5 9.5 8.38071 9.5 7C9.5 5.61929 8.38071 4.5 7 4.5C5.61929 4.5 4.5 5.61929 4.5 7C4.5 8.38071 5.61929 9.5 7 9.5ZM7 19.5C8.38071 19.5 9.5 18.3807 9.5 17C9.5 15.6193 8.38071 14.5 7 14.5C5.61929 14.5 4.5 15.6193 4.5 17C4.5 18.3807 5.61929 19.5 7 19.5ZM17 9.5C18.3807 9.5 19.5 8.38071 19.5 7C19.5 5.61929 18.3807 4.5 17 4.5C15.6193 4.5 14.5 5.61929 14.5 7C14.5 8.38071 15.6193 9.5 17 9.5ZM17 19.5C18.3807 19.5 19.5 18.3807 19.5 17C19.5 15.6193 18.3807 14.5 17 14.5C15.6193 14.5 14.5 15.6193 14.5 17C14.5 18.3807 15.6193 19.5 17 19.5Z" fill="currentColor"/>
    </symbol>

    <symbol id="icon-email" viewBox="0 0 22 19" fill="none" xmlns="http://www.w3.org/2000/svg">
        <path d="M21 0.75C21.5523 0.75 22 1.19772 22 1.75V17.7566C22 18.3052 21.5447 18.75 21.0082 18.75H2.9918C2.44405 18.75 2 18.3051 2 17.7566V16.75H20V5.05L12 12.25L2 3.25V1.75C2 1.19772 2.44772 0.75 3 0.75H21ZM8 12.75V14.75H0V12.75H8ZM5 7.75V9.75H0V7.75H5ZM19.5659 2.75H4.43414L12 9.5593L19.5659 2.75Z" fill="currentColor"/>
    </symbol>

    <symbol id="icon-user" viewBox="0 0 16 22" fill="none" xmlns="http://www.w3.org/2000/svg">
        <path d="M0 21.75C0 17.3317 3.58172 13.75 8 13.75C12.4183 13.75 16 17.3317 16 21.75H14C14 18.4363 11.3137 15.75 8 15.75C4.68629 15.75 2 18.4363 2 21.75H0ZM8 12.75C4.685 12.75 2 10.065 2 6.75C2 3.435 4.685 0.75 8 0.75C11.315 0.75 14 3.435 14 6.75C14 10.065 11.315 12.75 8 12.75ZM8 10.75C10.21 10.75 12 8.96 12 6.75C12 4.54 10.21 2.75 8 2.75C5.79 2.75 4 4.54 4 6.75C4 8.96 5.79 10.75 8 10.75Z" fill="currentColor"/>
    </symbol>

    <symbol id="icon-password" viewBox="0 0 22 13" fill="none" xmlns="http://www.w3.org/2000/svg">
        <path d="M11.917 7.75C11.441 10.5877 8.973 12.75 6 12.75C2.68629 12.75 0 10.0637 0 6.75C0 3.43629 2.68629 0.75 6 0.75C8.973 0.75 11.441 2.91229 11.917 5.75H22V7.75H20V11.75H18V7.75H16V11.75H14V7.75H11.917ZM6 10.75C8.20914 10.75 10 8.9591 10 6.75C10 4.54086 8.20914 2.75 6 2.75C3.79086 2.75 2 4.54086 2 6.75C2 8.9591 3.79086 10.75 6 10.75Z" fill="currentColor"/>
    </symbol>

    <symbol id="icon-close" viewBox="0 0 24 24" fill="none" xmlns="http://www.w3.org/2000/svg">
        <path d="M11.9987 10.5865L16.9485 5.63672L18.3627 7.05093L13.4129 12.0007L18.3627 16.9504L16.9485 18.3646L11.9987 13.4149L7.04899 18.3646L5.63477 16.9504L10.5845 12.0007L5.63477 7.05093L7.04899 5.63672L11.9987 10.5865Z" fill="currentColor"/>
    </symbol>

    <symbol id="icon-ratingStar" viewBox="0 0 16 16" fill="none" xmlns="http://www.w3.org/2000/svg">
        <path d="M8.00056 12.1734L3.29826 14.8055L4.34848 9.51997L0.39209 5.86124L5.74345 5.22675L8.00056 0.333374L10.2576 5.22675L15.609 5.86124L11.6526 9.51997L12.7028 14.8055L8.00056 12.1734Z" fill="currentColor"/>  
    </symbol>

    <symbol id="icon-favorites" viewBox="0 0 24 24" fill="none" xmlns="http://www.w3.org/2000/svg">
        <path d="M16.5 3C19.5376 3 22 5.5 22 9C22 16 14.5 20 12 21.5C9.5 20 2 16 2 9C2 5.5 4.5 3 7.5 3C9.35997 3 11 4 12 5C13 4 14.64 3 16.5 3ZM12.9339 18.6038C13.8155 18.0485 14.61 17.4955 15.3549 16.9029C18.3337 14.533 20 11.9435 20 9C20 6.64076 18.463 5 16.5 5C15.4241 5 14.2593 5.56911 13.4142 6.41421L12 7.82843L10.5858 6.41421C9.74068 5.56911 8.5759 5 7.5 5C5.55906 5 4 6.6565 4 9C4 11.9435 5.66627 14.533 8.64514 16.9029C9.39 17.4955 10.1845 18.0485 11.0661 18.6038C11.3646 18.7919 11.6611 18.9729 12 19.1752C12.3389 18.9729 12.6354 18.7919 12.9339 18.6038Z" fill="currentColor"/>
    </symbol>

    <symbol id="icon-favorites-filled" viewBox="0 0 24 24" fill="none" xmlns="http://www.w3.org/2000/svg">
        <path d="M16.5 3C19.5376 3 22 5.5 22 9C22 16 14.5 20 12 21.5C9.5 20 2 16 2 9C2 5.5 4.5 3 7.5 3C9.35997 3 11 4 12 5C13 4 14.64 3 16.5 3Z" fill="#B4A9FF"/>
    </symbol>

    <symbol id="icon-update" viewBox="0 0 20 20" fill="none" xmlns="http://www.w3.org/2000/svg">
        <path d="M10 2C12.7486 2 15.1749 3.38626 16.6156 5.5H14V7.5H20V1.5H18V3.99936C16.1762 1.57166 13.2724 0 10 0C4.47715 0 0 4.47715 0 10H2C2 5.58172 5.58172 2 10 2ZM18 10C18 14.4183 14.4183 18 10 18C7.25144 18 4.82508 16.6137 3.38443 14.5H6V12.5H0V18.5H2V16.0006C3.82381 18.4283 6.72764 20 10 20C15.5228 20 20 15.5228 20 10H18Z" fill="currentColor"/>
    </symbol>

    <symbol id="icon-chevron" viewBox="0 0 40 40" fill="none" xmlns="http://www.w3.org/2000/svg">
        <path d="M18.047 20.0012L26.2967 28.2507L23.9397 30.6077L13.333 20.0012L23.9397 9.39453L26.2967 11.7515L18.047 20.0012Z" fill="currentColor"/>
    </symbol>

    <symbol id="icon-vk" viewBox="0 0 19 11" fill="none" xmlns="http://www.w3.org/2000/svg">
        <path fill-rule="evenodd" clip-rule="evenodd" d="M18.4875 1.37968C18.6262 0.985106 18.4875 0.698125 17.8729 0.698125H15.8308C15.3153 0.698125 15.0774 0.949207 14.9387 1.21829C14.9387 1.21829 13.8879 3.51408 12.4207 5.00273C11.9449 5.4332 11.7268 5.57669 11.4691 5.57669C11.3303 5.57669 11.1519 5.4332 11.1519 5.03862V1.36173C11.1519 0.895411 10.9933 0.680176 10.5571 0.680176H7.34533C7.02811 0.680176 6.82988 0.895411 6.82988 1.11065C6.82988 1.55907 7.56341 1.66666 7.64271 2.92217V5.64843C7.64271 6.24034 7.52379 6.34793 7.26603 6.34793C6.57213 6.34793 4.88694 4.03419 3.87581 1.39763C3.67752 0.877462 3.47929 0.680176 2.96384 0.680176H0.901906C0.307142 0.680176 0.208008 0.93131 0.208008 1.20034C0.208008 1.68461 0.901906 4.12389 3.43961 7.35236C5.12485 9.55846 7.52379 10.7422 9.6848 10.7422C10.9933 10.7422 11.1519 10.4732 11.1519 10.0248V8.3568C11.1519 7.81868 11.2708 7.72904 11.6872 7.72904C11.9846 7.72904 12.5199 7.87248 13.7292 8.9307C15.117 10.1862 15.355 10.7602 16.1282 10.7602H18.1703C18.765 10.7602 19.0426 10.4911 18.884 9.97098C18.7056 9.45087 18.0315 8.69757 17.1591 7.80073C16.6833 7.29857 15.9696 6.74256 15.7515 6.47347C15.4541 6.1148 15.5334 5.97131 15.7515 5.64843C15.7317 5.64843 18.2297 2.45585 18.4875 1.37968Z" fill="currentColor" fill-opacity="0.8"/>
    </symbol>

    <symbol id="icon-tg" viewBox="0 0 17 15" fill="none" xmlns="http://www.w3.org/2000/svg">
        <path d="M0.600573 6.85881C2.28392 5.93157 4.163 5.15769 5.91872 4.37985C8.93924 3.10581 11.9718 1.85385 15.0349 0.688292C15.6309 0.489692 16.7017 0.295472 16.8067 1.17867C16.7492 2.42883 16.5127 3.67167 16.3504 4.91451C15.9387 7.64763 15.4627 10.3714 14.9986 13.0955C14.8387 14.0029 13.702 14.4726 12.9747 13.892C11.2268 12.7113 9.46544 11.5421 7.73984 10.3341C7.17458 9.75969 7.69874 8.93487 8.20358 8.52471C9.64322 7.10595 11.17 5.90055 12.5344 4.40847C12.9024 3.51969 11.815 4.26873 11.4563 4.49823C9.48542 5.85639 7.56278 7.29747 5.48486 8.49111C4.42346 9.07539 3.18638 8.57607 2.12546 8.25003C1.17421 7.85619 -0.219723 7.45941 0.600477 6.85887L0.600573 6.85881Z" fill="currentColor" fill-opacity="0.8"/>
    </symbol>

    <symbol id="icon-ok" viewBox="0 0 12 19" fill="none" xmlns="http://www.w3.org/2000/svg">
        <path d="M7.91902 13.2623L10.5725 15.8239C11.116 16.3475 11.116 17.1979 10.5725 17.7221C10.0294 18.2462 9.14932 18.2462 8.60687 17.7221L5.99801 15.2049L3.39142 17.7221C3.11963 17.9839 2.76349 18.1149 2.40735 18.1149C2.05178 18.1149 1.69621 17.9839 1.42441 17.7221C0.881398 17.1979 0.881398 16.348 1.42385 15.8239L4.07758 13.2623C3.1114 13.0498 2.17958 12.6802 1.32132 12.1605C0.671803 11.7651 0.476693 10.937 0.885942 10.3094C1.29406 9.68109 2.15232 9.49193 2.80297 9.88725C4.74612 11.0672 7.24933 11.0674 9.19362 9.88725C9.84428 9.49193 10.7023 9.68109 11.1112 10.3094C11.5205 10.9364 11.3248 11.7651 10.6753 12.1605C9.81701 12.6808 8.8852 13.0498 7.91902 13.2623Z" fill="currentColor" fill-opacity="0.8"/>
        <path fill-rule="evenodd" clip-rule="evenodd" d="M1.24023 4.94198C1.24023 7.46795 3.36913 9.52267 5.98679 9.52267C8.60502 9.52267 10.7333 7.46795 10.7333 4.94198C10.7333 2.41518 8.60502 0.359909 5.98679 0.359909C3.36913 0.359909 1.24023 2.41518 1.24023 4.94198ZM7.95202 4.94149C7.95202 3.89535 7.07048 3.04468 5.98672 3.04468C4.90381 3.04468 4.02141 3.89535 4.02141 4.94149C4.02141 5.98681 4.90381 6.83803 5.98672 6.83803C7.07048 6.83803 7.95202 5.98681 7.95202 4.94149Z" fill="currentColor" fill-opacity="0.8"/>
    </symbol>

    <symbol id="icon-youtube" viewBox="0 0 16 12" fill="none" xmlns="http://www.w3.org/2000/svg">
        <path fill-rule="evenodd" clip-rule="evenodd" d="M14.0008 1.04957C14.6617 1.23093 15.1822 1.7653 15.3588 2.4439C15.6798 3.67379 15.6798 6.23997 15.6798 6.23997C15.6798 6.23997 15.6798 8.80606 15.3588 10.036C15.1822 10.7146 14.6617 11.249 14.0008 11.4305C12.8031 11.76 7.99982 11.76 7.99982 11.76C7.99982 11.76 3.1966 11.76 1.99878 11.4305C1.33786 11.249 0.817366 10.7146 0.640726 10.036C0.319824 8.80606 0.319824 6.23997 0.319824 6.23997C0.319824 6.23997 0.319824 3.67379 0.640726 2.4439C0.817366 1.7653 1.33786 1.23093 1.99878 1.04957C3.1966 0.719971 7.99982 0.719971 7.99982 0.719971C7.99982 0.719971 12.8031 0.719971 14.0008 1.04957ZM6.55979 4.0802V8.88021L10.3998 6.4803L6.55979 4.0802Z" fill="currentColor" fill-opacity="0.8"/>
    </symbol>


</svg>
